<?xml version="1.0" encoding="utf-8"?>
<!-- Generator: Adobe Illustrator 24.2.0, SVG Export Plug-In . SVG Version: 6.00 Build 0)  -->
<svg version="1.1" id="Layer_1" xmlns="http://www.w3.org/2000/svg" xmlns:xlink="http://www.w3.org/1999/xlink" x="0px" y="0px"
	 viewBox="0 0 780 336" style="enable-background:new 0 0 780 336;" xml:space="preserve">
<style type="text/css">
	.st0{fill:#118ACB;}
	.st1{fill:#33B44A;}
	.st2{fill:#39B54A;}
	.st3{display:none;}
	.st4{display:inline;}
	.st5{fill:#0D84C7;}
	.st6{display:inline;fill:#1DA1DC;}
	.st7{display:inline;fill:#33B44A;}
	.st8{display:none;fill:#33B44A;}
	.st9{display:inline;fill:#FFFFFF;}
	.st10{display:none;fill:#12A9E1;}
	.st11{display:inline;fill:#12A9E1;}
	.st12{fill:#FFFFFF;}
	.st13{fill:#B3B3B3;}
</style>
<g id="XMLID_115_">
	<g id="XMLID_538_">
		<path id="XMLID_273_" class="st0" d="M-581.9,29.3c-3.1-3.2-7.1-4.8-11.9-4.8c-7.1,0-12.2,3.4-15.5,10.2
			c-6.9-8.1-16.4-12.2-28.4-12.2c-14.4,0-26.5,5.6-36.4,16.7c-9.8,11.1-14.7,24.7-14.7,40.7s4.9,29.6,14.7,40.7s22,16.7,36.4,16.7
			c12,0,21.5-4.1,28.4-12.2c3.2,6.8,8.4,10.2,15.5,10.2c4.8,0,8.8-1.6,11.9-4.8c3.1-3.2,4.7-7.1,4.7-11.7V41.1
			C-577.3,36.4-578.8,32.5-581.9,29.3z M-616.4,99.1c-4,5.2-9.6,7.8-16.6,7.8c-7.1,0-12.6-2.6-16.6-7.8c-4-5.2-6-11.6-6-19.3
			s2-14.1,6-19.3s9.6-7.8,16.6-7.8c7.1,0,12.6,2.6,16.6,7.8s6,11.6,6,19.3C-610.3,87.5-612.3,93.9-616.4,99.1z"/>
		<path id="XMLID_272_" class="st0" d="M-539.8,130.4c-3.1,3.2-7.1,4.8-11.9,4.8c-4.8,0-8.8-1.6-11.9-4.8c-3.1-3.2-4.7-7.1-4.7-11.7
			V-20.4c0-4.6,1.6-8.5,4.7-11.7s7.1-4.8,11.9-4.8s8.8,1.6,11.9,4.8s4.7,7.1,4.7,11.7v139.1C-535.1,123.3-536.7,127.2-539.8,130.4
			L-539.8,130.4z"/>
		<path id="XMLID_269_" class="st0" d="M-430.2,39.2c-10.6-11.1-24.1-16.7-40.5-16.7S-500.5,28-510.9,39
			c-10.4,11-15.6,24.6-15.6,40.9s5.2,29.9,15.6,40.9c10.4,11,23.8,16.5,40.2,16.5s29.9-5.6,40.5-16.7c10.2-10.9,15.3-24.4,15.3-40.7
			C-415,63.6-420.1,50-430.2,39.2z M-454.1,99.1c-4,5.2-9.6,7.8-16.6,7.8c-7.1,0-12.6-2.6-16.6-7.8c-4-5.2-6-11.6-6-19.3
			s2-14.1,6-19.3s9.6-7.8,16.6-7.8c7.1,0,12.6,2.6,16.6,7.8s6,11.6,6,19.3C-448.1,87.5-450.1,93.9-454.1,99.1z"/>
		<path id="XMLID_268_" class="st0" d="M-707.1,26.3c11.7-15.1,17.5-25.2,17.5-30.5c0-12.1-7.6-18.1-22.8-18.1h-80.3
			c-6.3,0-11.2,1.5-14.6,4.5c-3.5,3-5.2,6.9-5.2,11.6c0,4.8,1.7,8.6,5.2,11.6s8.3,4.5,14.6,4.5h55.1l-70.5,91.2
			c-4.6,6-6.9,11.3-6.9,15.9c0,13.3,8.8,19.9,26.3,19.9h82.8c13.2,0,19.8-5.6,19.8-16.7s-6.6-16.7-19.8-16.7h-60.9L-707.1,26.3
			L-707.1,26.3z"/>
	</g>
	<g id="XMLID_288_">
		<path id="XMLID_267_" class="st1" d="M-746.6,222.8h-20.6v42.8h20.6c6.2,0,11.2-2,15.1-6.1c3.8-4,5.8-9.2,5.8-15.4
			c0-6.2-1.9-11.3-5.8-15.4C-735.4,224.8-740.4,222.8-746.6,222.8z"/>
		<path id="XMLID_266_" class="st1" d="M-643.7,263.1c-6.5,0-11.7,2.4-15.4,7.2c-3.7,4.8-5.6,10.8-5.6,17.8c0,7.1,1.9,13,5.6,17.8
			s8.9,7.2,15.4,7.2s11.7-2.4,15.4-7.2c3.7-4.8,5.6-10.8,5.6-17.8c0-7.1-1.9-13-5.6-17.8C-632.1,265.5-637.2,263.1-643.7,263.1z"/>
		<path id="XMLID_262_" class="st2" d="M-498.1,161.6H-797c-10,0-18.1,8.1-18.1,18.1v175.1c0,10,8.1,18.1,18.1,18.1h235.9
			c-2.5-2.4-3.7-5.1-3.7-8.3c0-2.6,0.6-5.3,1.7-8.1l11.1-24.7l-30.7-77c-0.9-2.2-1.4-4.6-1.4-7.2c0-3.4,1.4-6.2,4.3-8.5
			c2.8-2.3,5.8-3.5,8.9-3.5c6.8,0,11.5,3.3,13.9,9.9l19.2,52.4l20.5-52.4c2.6-6.6,7.2-9.9,13.9-9.9c3.1,0,6.1,1.2,8.9,3.5
			c2.8,2.3,4.3,5.2,4.3,8.5c0,2.6-0.5,5-1.4,7.2l-45.5,110.7c-1.2,3.1-2.8,5.5-4.5,7.3h43.5c10,0,18.1-8.1,18.1-18.1V179.6
			C-480,169.6-488.1,161.6-498.1,161.6z M-709.2,279.4c-9.4,8.6-21.3,12.9-35.6,12.9h-22.4v33.1c0,5-1.4,8.9-4.2,11.6
			c-2.8,2.8-6.5,4.1-10.9,4.1c-4.4,0-8.1-1.4-10.9-4.1c-2.8-2.8-4.2-6.6-4.2-11.6V211.9c0-10.5,5.3-15.8,15.8-15.8h35.8
			c15,0,27.3,4.5,37.1,13.4c9.8,9,14.7,20.6,14.7,34.9C-694.2,258.8-699.2,270.5-709.2,279.4z M-592.1,324.1c0,4.3-1.4,7.9-4.3,10.8
			c-2.9,3-6.5,4.4-11,4.4c-6.5,0-11.3-3.1-14.3-9.4c-6.4,7.5-15.2,11.3-26.3,11.3c-13.3,0-24.6-5.1-33.7-15.4
			c-9.1-10.3-13.6-22.9-13.6-37.7c0-14.8,4.5-27.4,13.6-37.7c9.1-10.3,20.3-15.4,33.7-15.4c11.1,0,19.9,3.8,26.3,11.3
			c3-6.3,7.8-9.4,14.3-9.4c4.4,0,8.1,1.5,11,4.4c2.9,3,4.3,6.6,4.3,10.8V324.1z"/>
	</g>
</g>
<g id="XMLID_34_" class="st3">
	<g id="XMLID_52_" class="st4">
		<path id="XMLID_59_" class="st5" d="M-1386.8-567.5c-3.1-3.2-7.1-4.8-11.9-4.8c-7.1,0-12.2,3.4-15.5,10.2
			c-6.9-8.1-16.4-12.2-28.4-12.2c-14.4,0-26.5,5.6-36.4,16.7c-9.8,11.1-14.7,24.7-14.7,40.7s4.9,29.6,14.7,40.7
			c9.8,11.1,22,16.7,36.4,16.7c12,0,21.5-4.1,28.4-12.2c3.2,6.8,8.4,10.2,15.5,10.2c4.8,0,8.8-1.6,11.9-4.8
			c3.1-3.2,4.7-7.1,4.7-11.7v-77.7C-1382.1-560.4-1383.7-564.3-1386.8-567.5z M-1421.3-497.7c-4,5.2-9.6,7.8-16.6,7.8
			c-7.1,0-12.6-2.6-16.6-7.8c-4-5.2-6-11.6-6-19.3c0-7.7,2-14.1,6-19.3s9.6-7.8,16.6-7.8c7.1,0,12.6,2.6,16.6,7.8s6,11.6,6,19.3
			C-1415.2-509.3-1417.2-502.9-1421.3-497.7z"/>
		<path id="XMLID_58_" class="st5" d="M-1344.7-466.4c-3.1,3.2-7.1,4.8-11.9,4.8c-4.8,0-8.8-1.6-11.9-4.8c-3.1-3.2-4.7-7.1-4.7-11.7
			v-139.1c0-4.6,1.6-8.5,4.7-11.7c3.1-3.2,7.1-4.8,11.9-4.8s8.8,1.6,11.9,4.8c3.1,3.2,4.7,7.1,4.7,11.7v139.1
			C-1340-473.5-1341.6-469.6-1344.7-466.4L-1344.7-466.4z"/>
		<path id="XMLID_55_" class="st5" d="M-1235.1-557.7c-10.6-11.1-24.1-16.7-40.5-16.7s-29.8,5.5-40.2,16.5
			c-10.4,11-15.6,24.6-15.6,40.9c0,16.3,5.2,29.9,15.6,40.9c10.4,11,23.8,16.5,40.2,16.5s29.9-5.6,40.5-16.7
			c10.2-10.9,15.3-24.4,15.3-40.7C-1219.9-533.2-1225-546.8-1235.1-557.7z M-1259-497.7c-4,5.2-9.6,7.8-16.6,7.8
			c-7.1,0-12.6-2.6-16.6-7.8c-4-5.2-6-11.6-6-19.3c0-7.7,2-14.1,6-19.3s9.6-7.8,16.6-7.8c7.1,0,12.6,2.6,16.6,7.8s6,11.6,6,19.3
			C-1253-509.3-1255-502.9-1259-497.7z"/>
		<path id="XMLID_54_" class="st5" d="M-1512-570.5c11.7-15.1,17.5-25.2,17.5-30.5c0-12.1-7.6-18.1-22.8-18.1h-80.3
			c-6.3,0-11.2,1.5-14.6,4.5c-3.5,3-5.2,6.9-5.2,11.6c0,4.8,1.7,8.6,5.2,11.6s8.3,4.5,14.6,4.5h55.1l-70.6,91.2
			c-4.6,6-6.9,11.3-6.9,15.9c0,13.3,8.8,19.9,26.3,19.9h82.8c13.2,0,19.8-5.6,19.8-16.7s-6.6-16.7-19.8-16.7h-60.9L-1512-570.5
			L-1512-570.5z"/>
	</g>
	<g id="XMLID_35_" class="st4">
		<path id="XMLID_51_" class="st1" d="M-1551.5-374h-20.6v42.8h20.6c6.2,0,11.2-2,15.1-6.1c3.8-4,5.8-9.2,5.8-15.4
			c0-6.2-1.9-11.3-5.8-15.4C-1540.3-372-1545.3-374-1551.5-374z"/>
		<path id="XMLID_50_" class="st1" d="M-1448.6-333.7c-6.5,0-11.7,2.4-15.4,7.2s-5.6,10.8-5.6,17.8c0,7.1,1.9,13,5.6,17.8
			s8.9,7.2,15.4,7.2s11.7-2.4,15.4-7.2c3.7-4.8,5.6-10.8,5.6-17.8c0-7.1-1.9-13-5.6-17.8C-1436.9-331.3-1442.1-333.7-1448.6-333.7z"
			/>
		<path id="XMLID_36_" class="st1" d="M-1303-435.3h-298.9c-10,0-18.1,8.1-18.1,18.1v175.1c0,10,8.1,18.1,18.1,18.1h235.9
			c-2.5-2.4-3.7-5.1-3.7-8.3c0-2.6,0.6-5.3,1.7-8.1l11.1-24.7l-30.8-76.8c-0.9-2.2-1.4-4.6-1.4-7.2c0-3.4,1.4-6.2,4.3-8.5
			c2.8-2.3,5.8-3.5,8.9-3.5c6.8,0,11.5,3.3,13.9,9.9l19.2,52.4l20.5-52.4c2.6-6.6,7.2-9.9,13.9-9.9c3.1,0,6.1,1.2,8.9,3.5
			c2.8,2.3,4.3,5.2,4.3,8.5c0,2.6-0.5,5-1.4,7.2l-45.4,110.6c-1.2,3.1-2.8,5.5-4.5,7.3h43.5c10,0,18.1-8.1,18.1-18.1v-175.1
			C-1284.9-427.2-1293-435.3-1303-435.3z M-1514.1-317.4c-9.4,8.6-21.3,12.9-35.6,12.9h-22.4v33.1c0,5-1.4,8.9-4.2,11.6
			c-2.8,2.8-6.5,4.1-10.9,4.1c-4.4,0-8.1-1.4-10.9-4.1c-2.8-2.8-4.2-6.6-4.2-11.6V-385c0-10.5,5.3-15.8,15.8-15.8h35.8
			c15,0,27.3,4.5,37.1,13.4c9.8,9,14.7,20.6,14.7,34.9C-1499.1-338-1504.1-326.3-1514.1-317.4z M-1397-272.7c0,4.3-1.4,7.9-4.3,10.8
			c-2.9,3-6.5,4.4-11,4.4c-6.5,0-11.3-3.1-14.3-9.4c-6.4,7.5-15.2,11.3-26.3,11.3c-13.3,0-24.6-5.1-33.7-15.4
			c-9.1-10.3-13.6-22.9-13.6-37.7c0-14.8,4.5-27.4,13.6-37.7s20.3-15.4,33.7-15.4c11.1,0,19.9,3.8,26.3,11.3c3-6.3,7.8-9.4,14.3-9.4
			c4.4,0,8.1,1.5,11,4.4c2.9,3,4.3,6.6,4.3,10.8V-272.7z"/>
	</g>
</g>
<g id="XMLID_96_" class="st3">
	<path id="XMLID_103_" class="st6" d="M-1385.5-29.5c-3.1-3.2-7.1-4.8-11.9-4.8c-7.1,0-12.2,3.4-15.5,10.2
		c-6.9-8.1-16.4-12.2-28.4-12.2c-14.4,0-26.5,5.6-36.4,16.7c-9.8,11.1-14.7,24.7-14.7,40.7s4.9,29.6,14.7,40.7
		c9.8,11.1,22,16.7,36.4,16.7c12,0,21.5-4.1,28.4-12.2c3.2,6.8,8.4,10.2,15.5,10.2c4.8,0,8.8-1.6,11.9-4.8c3.1-3.2,4.7-7.1,4.7-11.7
		v-77.7C-1380.8-22.4-1382.4-26.3-1385.5-29.5z M-1420,40.3c-4,5.2-9.6,7.8-16.6,7.8c-7.1,0-12.6-2.6-16.6-7.8s-6-11.6-6-19.3
		s2-14.1,6-19.3s9.6-7.8,16.6-7.8c7.1,0,12.6,2.6,16.6,7.8s6,11.6,6,19.3C-1413.9,28.7-1415.9,35.1-1420,40.3z"/>
	<path id="XMLID_102_" class="st6" d="M-1343.4,71.6c-3.1,3.2-7.1,4.8-11.9,4.8s-8.8-1.6-11.9-4.8c-3.1-3.2-4.7-7.1-4.7-11.7V-79.2
		c0-4.6,1.6-8.5,4.7-11.7s7.1-4.8,11.9-4.8s8.8,1.6,11.9,4.8c3.1,3.2,4.7,7.1,4.7,11.7V59.9C-1338.7,64.5-1340.3,68.4-1343.4,71.6
		L-1343.4,71.6z"/>
	<path id="XMLID_99_" class="st6" d="M-1233.8-19.7c-10.6-11.1-24.1-16.7-40.5-16.7c-16.4,0-29.8,5.5-40.2,16.5
		s-15.6,24.6-15.6,40.9s5.2,29.9,15.6,40.9s23.8,16.5,40.2,16.5c16.4,0,29.9-5.6,40.5-16.7c10.2-10.9,15.3-24.4,15.3-40.7
		C-1218.6,4.8-1223.7-8.8-1233.8-19.7z M-1257.7,40.3c-4,5.2-9.6,7.8-16.6,7.8c-7.1,0-12.6-2.6-16.6-7.8s-6-11.6-6-19.3
		s2-14.1,6-19.3s9.6-7.8,16.6-7.8c7.1,0,12.6,2.6,16.6,7.8s6,11.6,6,19.3S-1253.7,35.1-1257.7,40.3z"/>
	<path id="XMLID_98_" class="st6" d="M-1510.7-32.5c11.7-15.1,17.5-25.2,17.5-30.5c0-12.1-7.6-18.1-22.8-18.1h-80.3
		c-6.3,0-11.2,1.5-14.6,4.5c-3.5,3-5.2,6.9-5.2,11.6c0,4.8,1.7,8.6,5.2,11.6s8.3,4.5,14.6,4.5h55.1l-70.6,91.2
		c-4.6,6-6.9,11.3-6.9,15.9c0,13.3,8.8,19.9,26.3,19.9h82.8c13.2,0,19.8-5.6,19.8-16.7c0-11.1-6.6-16.7-19.8-16.7h-60.9
		L-1510.7-32.5L-1510.7-32.5z"/>
</g>
<g id="XMLID_89_" class="st3">
	<path id="XMLID_95_" class="st7" d="M-1539.5,164h-20.6v42.8h20.6c6.2,0,11.2-2,15.1-6.1c3.8-4,5.8-9.2,5.8-15.4
		c0-6.2-1.9-11.3-5.8-15.4C-1528.3,166-1533.3,164-1539.5,164z"/>
	<path id="XMLID_94_" class="st7" d="M-1436.7,204.3c-6.5,0-11.7,2.4-15.4,7.2c-3.7,4.8-5.6,10.8-5.6,17.8c0,7.1,1.9,13,5.6,17.8
		c3.7,4.8,8.9,7.2,15.4,7.2s11.7-2.4,15.4-7.2c3.7-4.8,5.6-10.8,5.6-17.8c0-7.1-1.9-13-5.6-17.8S-1430.1,204.3-1436.7,204.3z"/>
	<path id="XMLID_90_" class="st7" d="M-1291,102.7h-298.9c-10,0-18.1,8.1-18.1,18.1v175.1c0,10,8.1,18.1,18.1,18.1h235.9
		c-2.5-2.4-3.7-5.1-3.7-8.3c0-2.6,0.6-5.3,1.7-8.1l11.1-24.7l-30.8-76.8c-0.9-2.2-1.4-4.6-1.4-7.2c0-3.4,1.4-6.2,4.3-8.5
		c2.8-2.3,5.8-3.5,8.9-3.5c6.8,0,11.5,3.3,13.9,9.9l19.2,52.4l20.5-52.4c2.6-6.6,7.2-9.9,13.9-9.9c3.1,0,6.1,1.2,8.9,3.5
		s4.3,5.2,4.3,8.5c0,2.6-0.5,5-1.4,7.2l-45.4,110.6c-1.2,3.1-2.8,5.5-4.5,7.3h43.5c10,0,18.1-8.1,18.1-18.1V120.8
		C-1273,110.8-1281.1,102.7-1291,102.7z M-1502.1,220.6c-9.4,8.6-21.3,12.9-35.6,12.9h-22.4v33.1c0,5-1.4,8.9-4.2,11.6
		c-2.8,2.8-6.5,4.1-10.9,4.1c-4.4,0-8.1-1.4-10.9-4.1c-2.8-2.8-4.2-6.6-4.2-11.6V153.1c0-10.5,5.3-15.8,15.8-15.8h35.8
		c15,0,27.3,4.5,37.1,13.4c9.8,9,14.7,20.6,14.7,34.9C-1487.2,200-1492.2,211.7-1502.1,220.6z M-1385.1,265.3
		c0,4.3-1.4,7.9-4.3,10.8c-2.9,3-6.5,4.4-11,4.4c-6.5,0-11.3-3.1-14.3-9.4c-6.4,7.5-15.2,11.3-26.3,11.3c-13.3,0-24.6-5.1-33.7-15.4
		c-9.1-10.3-13.6-22.9-13.6-37.7c0-14.8,4.5-27.4,13.6-37.7c9.1-10.3,20.3-15.4,33.7-15.4c11.1,0,19.9,3.8,26.3,11.3
		c3-6.3,7.8-9.4,14.3-9.4c4.4,0,8.1,1.5,11,4.4c2.9,3,4.3,6.6,4.3,10.8V265.3z"/>
</g>
<path id="XMLID_46_" class="st8" d="M304.5-459.3H77.7c-7.6,0-13.7-6.1-13.7-13.7v-132.9c0-7.6,6.1-13.7,13.7-13.7h226.8
	c7.6,0,13.7,6.1,13.7,13.7V-473C318.2-465.4,312.1-459.3,304.5-459.3z"/>
<g id="XMLID_37_" class="st3">
	<path id="XMLID_43_" class="st9" d="M77.3-495.2v-86.2c0-8,4-12,12-12h27.2c11.4,0,20.7,3.4,28.2,10.2c7.4,6.8,11.1,15.6,11.1,26.5
		s-3.8,19.8-11.4,26.5c-7.2,6.5-16.2,9.8-27,9.8h-17v25.2c0,3.8-1.1,6.7-3.2,8.8c-2.1,2.1-4.9,3.1-8.3,3.1c-3.4,0-6.1-1-8.3-3.1
		C78.3-488.5,77.3-491.4,77.3-495.2z M100.3-573.1v32.5h15.6c4.7,0,8.5-1.5,11.4-4.6s4.4-7,4.4-11.7s-1.5-8.6-4.4-11.7
		s-6.7-4.6-11.4-4.6h-15.6V-573.1z"/>
	<path id="XMLID_41_" class="st9" d="M263.7-490.5l-23.4-58.3c-0.7-1.7-1-3.5-1-5.4c0-2.5,1.1-4.7,3.2-6.5c2.2-1.8,4.4-2.6,6.8-2.6
		c5.2,0,8.7,2.5,10.6,7.5l14.5,39.8l15.6-39.8c2-5,5.5-7.5,10.6-7.5c2.4,0,4.6,0.9,6.8,2.6c2.2,1.8,3.2,3.9,3.2,6.5
		c0,2-0.3,3.8-1,5.4l-34.6,84c-2.3,5.6-5.6,8.4-10,8.4c-3.4,0-6.1-0.9-8.1-2.7c-2-1.8-2.9-3.9-2.9-6.4c0-2,0.4-4,1.3-6.2
		L263.7-490.5z"/>
	<path id="XMLID_38_" class="st9" d="M229.9-559.1c-2.2-2.2-5-3.4-8.3-3.4c-5,0-8.6,2.4-10.9,7.1c-4.9-5.7-11.5-8.6-20-8.6
		c-10.1,0-18.6,3.9-25.5,11.7s-10.3,17.3-10.3,28.6c0,11.2,3.4,20.8,10.3,28.6c6.9,7.8,15.4,11.7,25.5,11.7c8.4,0,15.1-2.9,20-8.6
		c2.3,4.8,5.9,7.1,10.9,7.1c3.4,0,6.2-1.1,8.3-3.4c2.2-2.2,3.3-5,3.3-8.2v-54.6C233.2-554.1,232.1-556.8,229.9-559.1z M205.7-510
		c-2.8,3.6-6.7,5.5-11.7,5.5s-8.9-1.8-11.7-5.5s-4.2-8.2-4.2-13.5c0-5.4,1.4-9.9,4.2-13.5s6.7-5.5,11.7-5.5s8.9,1.8,11.7,5.5
		c2.8,3.6,4.2,8.2,4.2,13.5C209.9-518.2,208.5-513.7,205.7-510z"/>
</g>
<path id="XMLID_489_" class="st10" d="M-926.1-791.8c0,0,18.8-2.6,25,4.9C-909.5-786.7-926.1-791.8-926.1-791.8z"/>
<path id="XMLID_486_" class="st10" d="M-1118.1-937.2c-2.2-2.2-5-3.4-8.4-3.4c-5,0-8.6,2.4-10.9,7.2c-4.9-5.8-11.6-8.6-20.1-8.6
	c-10.2,0-18.7,3.9-25.7,11.8c-6.9,7.9-10.4,17.4-10.4,28.7s3.5,20.9,10.4,28.7c6.9,7.9,15.5,11.8,25.7,11.8c8.5,0,15.2-2.9,20.1-8.6
	c2.3,4.8,5.9,7.2,10.9,7.2c3.4,0,6.2-1.1,8.4-3.4c2.2-2.2,3.3-5,3.3-8.3V-929C-1114.9-932.2-1115.9-935-1118.1-937.2z
	 M-1142.5-887.9c-2.8,3.7-6.8,5.5-11.8,5.5s-8.9-1.8-11.8-5.5c-2.8-3.7-4.3-8.2-4.3-13.6c0-5.4,1.4-9.9,4.3-13.6
	c2.8-3.7,6.8-5.5,11.8-5.5s8.9,1.8,11.8,5.5c2.8,3.7,4.3,8.2,4.3,13.6C-1138.2-896.1-1139.6-891.6-1142.5-887.9z"/>
<path id="XMLID_485_" class="st10" d="M-1088.4-865.8c-2.2,2.3-5,3.4-8.4,3.4c-3.4,0-6.2-1.1-8.4-3.4c-2.2-2.2-3.3-5-3.3-8.3v-88.2
	c0-3.3,1.1-6,3.3-8.3s5-3.4,8.4-3.4c3.4,0,6.2,1.1,8.4,3.4c2.2,2.3,3.3,5,3.3,8.3v88.2C-1085.1-870.8-1086.2-868-1088.4-865.8
	L-1088.4-865.8z"/>
<path id="XMLID_482_" class="st10" d="M-1011-930.2c-7.5-7.9-17-11.8-28.6-11.8s-21,3.9-28.4,11.6c-7.3,7.8-11,17.4-11,28.9
	s3.7,21.1,11,28.9c7.3,7.8,16.8,11.6,28.4,11.6s21.1-3.9,28.6-11.8c7.2-7.7,10.8-17.2,10.8-28.7S-1003.8-922.6-1011-930.2z
	 M-1027.9-887.9c-2.8,3.7-6.8,5.5-11.8,5.5s-8.9-1.8-11.8-5.5c-2.8-3.7-4.3-8.2-4.3-13.6c0-5.4,1.4-9.9,4.3-13.6
	c2.8-3.7,6.8-5.5,11.8-5.5s8.9,1.8,11.8,5.5c2.8,3.7,4.3,8.2,4.3,13.6C-1023.6-896.1-1025-891.6-1027.9-887.9z"/>
<path id="XMLID_481_" class="st10" d="M-1206.5-939.3c8.2-10.6,12.4-17.8,12.4-21.5c0-8.5-5.4-12.8-16.1-12.8h-56.8
	c-4.5,0-7.9,1.1-10.3,3.2c-2.4,2.1-3.7,4.8-3.7,8.2s1.2,6.1,3.7,8.2c2.4,2.1,5.9,3.2,10.3,3.2h38.9l-49.9,64.4
	c-3.3,4.2-4.9,7.9-4.9,11.2c0,9.4,6.2,14,18.6,14h58.5c9.3,0,14-3.9,14-11.8c0-7.8-4.7-11.8-14-11.8h-43L-1206.5-939.3
	L-1206.5-939.3z"/>
<path id="XMLID_480_" class="st8" d="M-925.3-951.1H-941v32.5h15.6c4.7,0,8.5-1.5,11.4-4.6s4.4-7,4.4-11.7s-1.5-8.6-4.4-11.7
	C-916.8-949.6-920.6-951.1-925.3-951.1z"/>
<path id="XMLID_479_" class="st8" d="M-847.3-920.5c-5,0-8.9,1.8-11.7,5.5c-2.8,3.6-4.2,8.2-4.2,13.5c0,5.4,1.4,9.9,4.2,13.5
	s6.7,5.5,11.7,5.5s8.9-1.8,11.7-5.5c2.8-3.7,4.2-8.2,4.2-13.5c0-5.4-1.4-9.9-4.2-13.5C-838.4-918.7-842.3-920.5-847.3-920.5z"/>
<path id="XMLID_475_" class="st8" d="M-736.7-997.6h-226.8c-7.6,0-13.7,6.1-13.7,13.7V-851c0,7.6,6.1,13.7,13.7,13.7h179
	c-1.9-1.8-2.8-3.9-2.8-6.3c0-2,0.4-4,1.3-6.2l8.4-18.8l-23.4-58.3c-0.7-1.7-1-3.5-1-5.4c0-2.5,1.1-4.7,3.2-6.5
	c2.2-1.8,4.4-2.6,6.8-2.6c5.2,0,8.7,2.5,10.6,7.5l14.5,39.8l15.6-39.8c2-5,5.5-7.5,10.6-7.5c2.4,0,4.6,0.9,6.8,2.6
	c2.2,1.8,3.2,3.9,3.2,6.5c0,2-0.3,3.8-1,5.4l-34.6,84c-0.9,2.3-2.1,4.2-3.4,5.6h33c7.6,0,13.7-6.1,13.7-13.7v-132.9
	C-723-991.5-729.2-997.6-736.7-997.6z M-897-908.2c-7.2,6.5-16.2,9.8-27,9.8h-17v25.2c0,3.8-1.1,6.7-3.2,8.8
	c-2.1,2.1-4.9,3.1-8.3,3.1s-6.1-1-8.3-3.1c-2.1-2.1-3.2-5-3.2-8.8v-86.2c0-8,4-12,12-12h27.2c11.4,0,20.7,3.4,28.2,10.2
	c7.4,6.8,11.1,15.6,11.1,26.5C-885.6-923.8-889.4-914.9-897-908.2z M-808.1-874.2c0,3.2-1.1,6-3.3,8.2c-2.2,2.2-5,3.4-8.3,3.4
	c-5,0-8.6-2.4-10.9-7.1c-4.9,5.7-11.5,8.6-20,8.6c-10.1,0-18.6-3.9-25.5-11.7c-6.9-7.8-10.3-17.3-10.3-28.6
	c0-11.2,3.4-20.8,10.3-28.6c6.9-7.8,15.4-11.7,25.5-11.7c8.4,0,15.1,2.9,20,8.6c2.3-4.8,5.9-7.1,10.9-7.1c3.4,0,6.2,1.1,8.3,3.4
	c2.2,2.2,3.3,5,3.3,8.2C-808.1-928.6-808.1-874.2-808.1-874.2z"/>
<g id="XMLID_419_" class="st3">
	<path id="XMLID_473_" class="st11" d="M-1235.9-749.4h-4.2l4.6-23h-8.4l0.7-3.6h21l-0.7,3.6h-8.4L-1235.9-749.4z"/>
	<path id="XMLID_471_" class="st11" d="M-1224.3-749.4l5.6-27.8h4l-2.3,11.2h0.1c1.7-2.4,4.2-3.6,7.3-3.6c2.2,0,3.9,0.7,5,2
		c1.1,1.4,1.4,3.2,0.9,5.4l-2.6,12.8h-4l2.4-12c0.3-1.5,0.1-2.7-0.6-3.5c-0.7-0.8-1.8-1.3-3.2-1.3c-1.6,0-2.9,0.5-4.1,1.5
		s-1.9,2.3-2.2,3.9l-2.3,11.4L-1224.3-749.4z"/>
	<path id="XMLID_468_" class="st11" d="M-1196.2-749.2c-2,0-3.6-0.5-4.6-1.6c-1.1-1.1-1.4-2.5-1-4.3c0.3-1.7,1.3-3.1,2.8-4.1
		s3.6-1.6,6.1-1.7l5.5-0.3l0.3-1.5c0.2-1.1,0-2-0.6-2.6s-1.6-0.9-3-0.9c-1.1,0-2.1,0.3-2.9,0.8c-0.9,0.5-1.5,1.2-1.8,2.1h-3.8
		c0.4-1.8,1.5-3.2,3.3-4.4s3.8-1.7,6.1-1.7c2.5,0,4.3,0.6,5.6,1.8c1.2,1.2,1.7,2.8,1.3,4.7l-2.7,13.7h-3.9l0.7-3.3h-0.1
		c-0.8,1.1-1.8,1.9-3.1,2.6C-1193.5-749.5-1194.8-749.2-1196.2-749.2z M-1194.5-752.4c1.5,0,2.9-0.4,4-1.3c1.2-0.9,1.9-1.9,2.2-3.2
		l0.3-1.6l-5,0.3c-2.8,0.2-4.4,1.2-4.8,2.9c-0.2,0.9,0,1.5,0.6,2.1C-1196.6-752.6-1195.7-752.4-1194.5-752.4z"/>
	<path id="XMLID_466_" class="st11" d="M-1181.7-749.4l4-20h3.9l-0.7,3.4h0.1c1.7-2.4,4.2-3.6,7.3-3.6c2.2,0,3.9,0.7,4.9,2
		s1.3,3.1,0.8,5.4l-2.6,12.8h-4.1l2.4-12.1c0.3-1.5,0.1-2.7-0.5-3.5s-1.7-1.2-3.2-1.2s-2.9,0.5-4,1.4c-1.1,1-1.8,2.2-2.2,3.8
		l-2.3,11.5L-1181.7-749.4z"/>
	<path id="XMLID_464_" class="st11" d="M-1159.7-749.4l5.6-27.8h4l-2.2,11.1h0.1c1.7-2.4,4.2-3.6,7.3-3.6c2.2,0,3.9,0.7,5,2
		c1.1,1.4,1.4,3.2,0.9,5.4l-2.6,12.8h-4l2.4-12c0.3-1.5,0.1-2.7-0.6-3.5s-1.8-1.3-3.2-1.3c-1.6,0-2.9,0.5-4.1,1.5
		c-1.2,1-1.9,2.3-2.2,3.9l-2.3,11.4L-1159.7-749.4z"/>
	<path id="XMLID_462_" class="st11" d="M-1122.6-773.9h4l-0.9,4.5h3.9l-0.6,3.1h-3.9l-2.2,11.2c-0.2,0.9-0.1,1.5,0.2,1.9
		c0.3,0.4,0.9,0.6,1.8,0.6c0.5,0,1,0,1.4-0.1l-0.6,3.1c-0.6,0.1-1.3,0.2-2.3,0.2c-2,0-3.4-0.4-4.1-1.2s-0.8-2.2-0.5-4.1l2.3-11.6
		h-2.8l0.6-3.1h2.8L-1122.6-773.9z"/>
	<path id="XMLID_459_" class="st11" d="M-1100.4-751.9c-2.1,1.8-4.6,2.8-7.6,2.8c-2.9,0-5.1-0.9-6.5-2.8c-1.4-1.8-1.7-4.3-1.1-7.5
		c0.6-3.1,2-5.6,4.1-7.5s4.6-2.8,7.6-2.8c2.9,0,5.1,0.9,6.4,2.8c1.4,1.8,1.7,4.3,1.1,7.5C-1096.9-756.2-1098.3-753.7-1100.4-751.9z
		 M-1110.9-754.3c0.7,1.2,2,1.8,3.7,1.8c1.7,0,3.2-0.6,4.4-1.8c1.2-1.2,2-2.9,2.5-5.1c0.4-2.2,0.3-3.9-0.4-5.1
		c-0.7-1.2-1.9-1.8-3.7-1.8c-1.7,0-3.2,0.6-4.4,1.8c-1.2,1.2-2,2.9-2.5,5.1S-1111.7-755.5-1110.9-754.3z"/>
	<path id="XMLID_455_" class="st11" d="M-1089.1-749.2c-2,0-3.6-0.5-4.6-1.6c-1.1-1.1-1.4-2.5-1-4.3c0.3-1.7,1.3-3.1,2.8-4.1
		s3.6-1.6,6.1-1.7l5.5-0.3l0.3-1.5c0.2-1.1,0-2-0.6-2.6c-0.6-0.6-1.6-0.9-3-0.9c-1.1,0-2.1,0.3-2.9,0.8c-0.9,0.5-1.5,1.2-1.8,2.1
		h-3.8c0.4-1.8,1.5-3.2,3.3-4.4c1.8-1.2,3.8-1.7,6.1-1.7c2.5,0,4.3,0.6,5.6,1.8c1.2,1.2,1.7,2.8,1.3,4.7l-2.7,13.7h-3.9l0.7-3.3
		h-0.1c-0.8,1.1-1.8,1.9-3.1,2.6C-1086.4-749.5-1087.7-749.2-1089.1-749.2z M-1087.4-752.4c1.5,0,2.9-0.4,4-1.3
		c1.2-0.9,1.9-1.9,2.2-3.2l0.3-1.6l-5,0.3c-2.8,0.2-4.4,1.2-4.8,2.9c-0.2,0.9,0,1.5,0.6,2.1
		C-1089.4-752.6-1088.6-752.4-1087.4-752.4z M-1080.7-772.5h-3.3l5.1-5.6h4.2L-1080.7-772.5z"/>
	<path id="XMLID_453_" class="st11" d="M-1074.6-749.4l4-20h3.9l-0.7,3.4h0.1c1.7-2.4,4.2-3.6,7.3-3.6c2.2,0,3.9,0.7,4.9,2
		s1.3,3.1,0.8,5.4l-2.6,12.8h-4.1l2.4-12.1c0.3-1.5,0.1-2.7-0.5-3.5c-0.6-0.8-1.7-1.2-3.2-1.2s-2.9,0.5-4,1.4
		c-1.1,1-1.8,2.2-2.2,3.8l-2.3,11.5L-1074.6-749.4z"/>
	<path id="XMLID_451_" class="st11" d="M-1037.8-773.8h4l-0.9,4.5h3.9l-0.6,3.1h-3.9l-2.2,11.2c-0.2,0.9-0.1,1.5,0.2,1.9
		c0.3,0.4,0.9,0.6,1.8,0.6c0.5,0,1,0,1.4-0.1l-0.6,3.1c-0.6,0.1-1.4,0.2-2.3,0.2c-2,0-3.4-0.4-4.1-1.2c-0.7-0.8-0.8-2.2-0.5-4.1
		l2.3-11.6h-2.8l0.6-3.1h2.8L-1037.8-773.8z"/>
	<path id="XMLID_441_" class="st11" d="M-1031.4-749.4l4-20h3.9l-0.7,3.4h0.1c0.5-1.1,1.3-2,2.3-2.6s2.1-0.9,3.3-0.9
		c0.6,0,1,0,1.3,0.1l-0.7,3.7c-0.4-0.2-1-0.3-1.7-0.3c-1.3,0-2.5,0.4-3.4,1.3c-1,0.8-1.6,2-1.9,3.4l-2.4,11.9L-1031.4-749.4z"/>
	<path id="XMLID_438_" class="st11" d="M-1003.1-751.9c-2.1,1.8-4.6,2.8-7.6,2.8c-2.9,0-5.1-0.9-6.5-2.8c-1.4-1.8-1.7-4.3-1.1-7.5
		c0.6-3.1,2-5.6,4.1-7.5s4.6-2.8,7.6-2.8c2.9,0,5.1,0.9,6.4,2.8c1.4,1.8,1.7,4.3,1.1,7.5C-999.7-756.2-1001-753.7-1003.1-751.9z
		 M-1013.7-754.3c0.7,1.2,2,1.8,3.7,1.8s3.2-0.6,4.4-1.8c1.2-1.2,2-2.9,2.5-5.1c0.4-2.2,0.3-3.9-0.4-5.1c-0.7-1.2-1.9-1.8-3.7-1.8
		c-1.7,0-3.2,0.6-4.4,1.8c-1.2,1.2-2,2.9-2.5,5.1S-1014.4-755.5-1013.7-754.3z"/>
	<path id="XMLID_436_" class="st11" d="M-997.8-749.3l4-20h3.9l-0.7,3.4h0.1c1.7-2.4,4.2-3.6,7.3-3.6c2.2,0,3.9,0.7,4.9,2
		s1.3,3.1,0.8,5.4l-2.6,12.8h-4.1l2.4-12.1c0.3-1.5,0.1-2.7-0.5-3.5c-0.6-0.8-1.7-1.2-3.2-1.2s-2.9,0.5-4,1.4
		c-1.1,1-1.8,2.2-2.2,3.8l-2.3,11.5L-997.8-749.3z"/>
	<path id="XMLID_433_" class="st11" d="M-968.7-742.1c-2.4,0-4.4-0.5-5.8-1.5s-2-2.4-1.9-4.1h4.1c0.1,0.8,0.5,1.4,1.3,1.8
		c0.8,0.5,1.8,0.7,3,0.7c1.6,0,3-0.4,4.1-1.2c1.1-0.8,1.8-1.8,2.1-3.1l0.7-3.3h-0.1c-0.8,1.1-1.8,1.9-3.1,2.5s-2.6,0.9-4,0.9
		c-2.5,0-4.4-0.9-5.6-2.7c-1.2-1.8-1.5-4.2-0.9-7.3s1.9-5.5,3.8-7.4c1.9-1.8,4.2-2.8,6.8-2.7c1.4,0,2.7,0.3,3.7,0.9
		c1,0.6,1.7,1.5,2.1,2.6h0.1l0.7-3.3h3.9l-3.9,19.5c-0.5,2.4-1.7,4.3-3.7,5.6C-963.3-742.8-965.8-742.1-968.7-742.1z M-966.6-752.7
		c1.6,0,3.1-0.6,4.3-1.8s2.1-2.8,2.5-4.8c0.4-2,0.2-3.7-0.5-4.9c-0.8-1.2-2-1.9-3.6-1.9c-1.6,0-3.1,0.6-4.3,1.8s-2,2.9-2.5,4.9
		c-0.4,2-0.2,3.7,0.5,4.9S-968.3-752.7-966.6-752.7z"/>
	<path id="XMLID_429_" class="st11" d="M-883.5-742.1c-2.4,0-4.4-0.5-5.8-1.5c-1.4-1-2-2.4-1.9-4.1h4.1c0.1,0.8,0.5,1.4,1.3,1.8
		c0.8,0.5,1.8,0.7,3,0.7c1.6,0,3-0.4,4.1-1.2c1.1-0.8,1.8-1.8,2.1-3.1l0.7-3.3h-0.1c-0.8,1.1-1.8,1.9-3.1,2.5
		c-1.3,0.6-2.6,0.9-4,0.9c-2.5,0-4.4-0.9-5.6-2.7s-1.5-4.2-0.9-7.3c0.6-3.1,1.9-5.5,3.8-7.4c1.9-1.8,4.2-2.8,6.8-2.7
		c1.4,0,2.7,0.3,3.7,0.9c1,0.6,1.7,1.5,2.1,2.6h0.1l0.7-3.3h3.9l-3.9,19.5c-0.5,2.4-1.7,4.3-3.7,5.6
		C-878.1-742.8-880.5-742.1-883.5-742.1z M-881.4-752.7c1.6,0,3.1-0.6,4.3-1.8c1.2-1.2,2.1-2.8,2.5-4.8c0.4-2,0.2-3.7-0.5-4.9
		c-0.8-1.2-2-1.9-3.6-1.9c-1.6,0-3.1,0.6-4.3,1.8s-2,2.9-2.5,4.9c-0.4,2-0.2,3.7,0.5,4.9C-884.2-753.3-883-752.7-881.4-752.7z"/>
	<path id="XMLID_426_" class="st11" d="M-859.8-772.8c-0.6,0.4-1.2,0.7-1.8,0.7c-0.7,0-1.2-0.2-1.5-0.7c-0.4-0.4-0.5-1-0.4-1.6
		s0.5-1.2,1-1.6c0.5-0.4,1.2-0.7,1.8-0.7c0.7,0,1.2,0.2,1.6,0.7c0.4,0.4,0.5,1,0.4,1.6C-858.9-773.8-859.2-773.3-859.8-772.8z
		 M-868.2-749.3l4-20h4.1l-4,20H-868.2z"/>
	<path id="XMLID_422_" class="st11" d="M-853.9-749.1c-2,0-3.6-0.5-4.6-1.6c-1.1-1.1-1.4-2.5-1-4.3c0.3-1.7,1.3-3.1,2.8-4.1
		s3.6-1.6,6.1-1.7l5.5-0.3l0.3-1.5c0.2-1.1,0-2-0.6-2.6c-0.6-0.6-1.6-0.9-3-0.9c-1.1,0-2.1,0.3-2.9,0.8c-0.9,0.5-1.5,1.2-1.8,2.1
		h-3.8c0.4-1.8,1.5-3.2,3.3-4.4c1.8-1.2,3.8-1.7,6.1-1.7c2.5,0,4.3,0.6,5.6,1.8c1.2,1.2,1.7,2.8,1.3,4.7l-2.7,13.7h-3.9l0.7-3.3
		h-0.1c-0.8,1.1-1.8,1.9-3.1,2.6C-851.2-749.4-852.5-749.1-853.9-749.1z M-844.5-778l4,5.7h-3.5l-2.4-3.6h-0.1l-3.8,3.6h-3.5
		l6.2-5.6L-844.5-778z M-852.2-752.3c1.5,0,2.9-0.4,4-1.3c1.2-0.9,1.9-1.9,2.2-3.2l0.3-1.6l-5,0.3c-2.8,0.2-4.4,1.2-4.8,2.9
		c-0.2,0.9,0,1.5,0.6,2.1C-854.3-752.5-853.4-752.3-852.2-752.3z"/>
	<path id="XMLID_420_" class="st11" d="M-838.8-742c-0.7,0-1.2,0-1.6-0.1l0.6-3.2c0.2,0.1,0.7,0.1,1.3,0.1c1,0,1.8-0.2,2.4-0.7
		c0.7-0.4,1.3-1.2,1.8-2.3l0.5-1l-3.4-20h4.4l1.9,16.3h0.1l8.5-16.3h4.3l-11.8,20.9c-1.4,2.4-2.7,4-4,5
		C-835.1-742.5-836.8-742-838.8-742z"/>
</g>
<g id="XMLID_416_" class="st3">
	<path id="XMLID_417_" class="st11" d="M-933-778c0.8-3.9,2.8-7.1,6.2-9.5c3.3-2.5,7.3-3.7,11.8-3.7c4.4,0,7.7,1.1,10,3.3
		s3.1,5.1,2.4,8.5c-0.2,1.2-0.7,2.4-1.3,3.6c-0.6,1.1-1.4,2.3-2.5,3.4c-1,1.1-2.1,2.2-3.1,3.1c-1,0.9-2.3,2-3.9,3.3l-12.1,9.6v0.2
		h18.8l-1.4,6.8h-30.3l1.2-5.8l18.7-14.9c2.5-2.1,4.3-3.8,5.3-5c1-1.3,1.7-2.6,2-4c0.3-1.6-0.1-2.9-1.1-3.9c-1-1.1-2.5-1.6-4.4-1.6
		c-2,0-3.8,0.6-5.4,1.9c-1.6,1.2-2.6,2.8-2.9,4.7v0.1L-933-778L-933-778z"/>
</g>
<g id="XMLID_413_" class="st3">
	<path id="XMLID_414_" class="st11" d="M-930-778c0.8-3.9,2.8-7.1,6.2-9.5c3.3-2.5,7.3-3.7,11.8-3.7c4.4,0,7.7,1.1,10,3.3
		s3.1,5.1,2.4,8.5c-0.2,1.2-0.7,2.4-1.3,3.6c-0.6,1.1-1.4,2.3-2.5,3.4c-1,1.1-2.1,2.2-3.1,3.1c-1,0.9-2.3,2-3.9,3.3l-12.1,9.6v0.2
		h18.8l-1.4,6.8h-30.3l1.2-5.8l18.7-14.9c2.5-2.1,4.3-3.8,5.3-5c1-1.3,1.7-2.6,2-4c0.3-1.6-0.1-2.9-1.1-3.9c-1-1.1-2.6-1-4.4-1.6
		C-922.7-787.7-930.1-777.9-930-778L-930-778z"/>
</g>
<g id="XMLID_410_" class="st3">
	<path id="XMLID_411_" class="st11" d="M-941-778c0.8-3.9,2.9-6.9,6.2-9.5c4.7-3.7,14.2-6.5,23.8-3.1c4.1,1.5-4.3,0.5-2,2.7
		s3.1,5.1,2.4,8.5c-0.2,1.2-0.7,2.4-1.3,3.6c-0.6,1.1-1.4,2.3-2.5,3.4c-1,1.1-2.1,2.2-3.1,3.1c-1,0.9-2.3,2-3.9,3.3l-12.1,9.6v0.2
		h18.8l-1.4,6.8h-30.3l1.2-5.8l18.7-14.9c2.5-2.1,4.3-3.8,5.3-5c1-1.3,1.7-2.6,2-4c0.3-1.6-0.1-2.9-1.1-3.9c-1-1.1-2.5-1.6-4.4-1.6
		c-2,0-3.8,0.6-5.4,1.9c-1.6,1.2-2.6,2.8-2.9,4.7v0.1L-941-778L-941-778z"/>
</g>
<g id="XMLID_397_" class="st3">
	<path id="XMLID_398_" class="st11" d="M-943-778c0.8-3.9,2.9-6.9,6.2-9.5c4.7-3.7,14.2-6.5,23.8-3.1c4.1,1.5-4.3,0.5-2,2.7
		s3.1,5.1,2.4,8.5c-0.2,1.2-0.7,2.4-1.3,3.6c-0.6,1.1-1.4,2.3-2.5,3.4c-1,1.1-2.1,2.2-3.1,3.1c-1,0.9-2.3,2-3.9,3.3l-12.1,9.6v0.2
		h18.8l-1.4,6.8h-30.3l1.2-5.8l18.7-14.9c2.5-2.1,4.3-3.8,5.3-5c1-1.3,1.7-2.6,2-4c0.3-1.6-0.1-2.9-1.1-3.9c-1-1.1-2.5-1.6-4.4-1.6
		c-2,0-3.8,0.6-5.4,1.9c-1.6,1.2-2.6,2.8-2.9,4.7v0.1L-943-778L-943-778z"/>
</g>
<g id="XMLID_377_" class="st3">
	<g id="XMLID_380_" class="st4">
		<path id="XMLID_381_" class="st12" d="M-936.6-782.2h-11l-3,3.5h11.8l3.9-1.5l7.5-0.3l-7.3-1.1L-936.6-782.2z M-929.3-788.6
			l15.2-0.7L-929-790l-1.9-0.7h-11l-3,3.5h11.8L-929.3-788.6z M-932.1-784.4l23.2-0.7l-23-0.7l-1.9-0.7h-11l-3,3.5h11.8
			L-932.1-784.4z"/>
	</g>
</g>
<g id="XMLID_161_" class="st3">
	<g id="XMLID_173_" class="st4">
		<path id="XMLID_194_" class="st12" d="M-912.9-781l10.3-0.7l-10.1-0.7l-1.9-0.7c0,0-3.2-1-6.8,0c-0.3,0.1-0.6,0.3-1,0.7
			c-0.4,0.4-0.7,2.9-0.7,2.9h6.2L-912.9-781z M-914.5-778.9h-8.2l-3,3.5h9l3.9-1.5l10.3-0.7l-10.1-0.7L-914.5-778.9z M-918-774.7
			h-11l-3,3.5h11.8l3.9-1.5l10.3-0.7l-10.1-0.7L-918-774.7z M-921.3-768.4l13.1-0.7l-12.9-0.7l-1.9-0.7h-11l-3,3.5h11.8
			L-921.3-768.4z M-925.5-764.2l11.7-0.7l-11.5-0.7l-1.9-0.7h-11l-3,3.5h11.8L-925.5-764.2z M-931.1-760l11-0.7l-10.8-0.7l-1.9-0.7
			h-11l-3,3.5h11.8L-931.1-760z M-937-757.8h-11l-3,3.5h11.8l3.9-1.5l29.3-0.7l-29.1-0.7L-937-757.8z M-939.8-753.6h-11l-3,3.5h11.8
			l3.9-1.5l31.4-0.7l-31.2-0.7L-939.8-753.6z"/>
	</g>
</g>
<g>
	<path class="st0" d="M-319.1,45.8l266.7-39C-67.3-6.2-86.7-14-107.9-14h-194.2c-46.9,0-84.8,38-84.8,84.8V265
		c0,42.1,30.7,77.1,70.9,83.7L-351.2,89C-354.2,68.3-339.6,48.8-319.1,45.8z"/>
	<path class="st12" d="M-52.4,6.8l-266.7,39c-20.5,3-35.1,22.5-32.1,43.3l35.2,259.7c4.5,0.7,9.2,1.2,13.9,1.2h194.2
		c46.9,0,84.8-38,84.8-84.8V70.8C-23.1,45.3-34.4,22.3-52.4,6.8z"/>
	<path class="st13" d="M-52.4,6.8L-53.3,7C-35,23-24,46.5-24,70.9v193.9c0,46.4-37.8,84.2-84.2,84.2h-194c-4.4,0-9.5-0.5-14-1.2
		l0.1,1c4.7,0.8,9.2,1.2,13.8,1.2h193.9c47,0,85.2-38.2,85.2-85.2V70.8C-23.1,46-33.7,23-52.4,6.8z"/>
	<g id="XMLID_85_">
		<g id="XMLID_107_">
			<path id="XMLID_111_" class="st0" d="M-160.3,106.8c-1.7-1.7-3.6-2.6-6.3-2.6c-3.6,0-6.3,1.7-7.9,5.3c-3.6-4.3-8.6-6.3-14.9-6.3
				c-7.6,0-13.9,3-19.2,8.6c-5.3,6-7.6,12.9-7.6,21.2s2.6,15.5,7.6,21.2c5.3,6,11.6,8.6,19.2,8.6c6.3,0,11.2-2,14.9-6.3
				c1.7,3.6,4.3,5.3,7.9,5.3c2.6,0,4.6-1,6.3-2.6s2.3-3.6,2.3-6.3v-40.7C-157.7,110.8-158.7,108.5-160.3,106.8z M-178.2,143.5
				c-2,2.6-5,4-8.6,4s-6.6-1.3-8.6-4c-2-2.6-3.3-6-3.3-10.3c0-4,1-7.3,3.3-9.9c2-2.6,5-4,8.6-4s6.6,1.3,8.6,4c2,2.6,3.3,6,3.3,9.9
				C-175.2,137.2-176.2,141-178.2,143.5z"/>
			<path id="XMLID_110_" class="st0" d="M-138.2,159.7c-1.7,1.7-3.6,2.6-6.3,2.6c-2.6,0-4.6-1-6.3-2.6c-1.7-1.7-2.3-3.6-2.3-6.3
				V80.6c0-2.3,0.7-4.3,2.3-6.3c1.7-1.7,3.6-2.6,6.3-2.6c2.6,0,4.6,1,6.3,2.6c1.7,1.7,2.3,3.6,2.3,6.3v72.8
				C-135.9,156.1-136.5,158.1-138.2,159.7L-138.2,159.7z"/>
			<path id="XMLID_109_" class="st0" d="M-81,112.1c-5.6-6-12.6-8.6-21.2-8.6c-8.6,0-15.5,3-21.2,8.6c-5.3,5.6-8.3,12.9-8.3,21.5
				s2.6,15.5,8.3,21.5c5.3,5.6,12.6,8.6,21.2,8.6c8.6,0,15.5-3,21.2-8.6c5.3-5.6,7.9-12.9,7.9-21.2C-72.7,125-75.3,117.8-81,112.1z
				 M-93.2,143.5c-2,2.6-5,4-8.6,4s-6.6-1.3-8.6-4c-2-2.6-3.3-6-3.3-10.3c0-4,1-7.3,3.3-9.9c2-2.6,5-4,8.6-4s6.6,1.3,8.6,4
				c2,2.6,3.3,6,3.3,9.9C-90.2,137.2-91.2,141-93.2,143.5z"/>
			<path id="XMLID_108_" class="st0" d="M-225.8,105.5c6-7.9,9.3-13.2,9.3-15.9c0-6.3-4-9.6-11.9-9.6h-42c-3.3,0-6,0.7-7.6,2.3
				c-1.7,1.7-2.6,3.6-2.6,6c0,2.6,1,4.6,2.6,6c1.7,1.7,4.3,2.3,7.6,2.3h28.8l-37,47.6c-2.3,3-3.6,6-3.6,8.3
				c0,6.9,4.6,10.3,13.9,10.3h43.3c6.9,0,10.3-3,10.3-8.6c0-6-3.3-8.6-10.3-8.6h-31.8L-225.8,105.5L-225.8,105.5z"/>
		</g>
		<g id="XMLID_86_">
			<path id="XMLID_106_" class="st2" d="M-246.4,208.5h-10.9V231h10.9c3.3,0,6-1,7.9-3.3c2-2,3-5,3-7.9c0-3.3-1-6-3-7.9
				C-240.4,209.5-243,208.5-246.4,208.5z"/>
			<path id="XMLID_88_" class="st2" d="M-192.4,229.2c-3.3,0-6,1.3-7.9,3.6c-2,2.6-3,5.6-3,9.3s1,6.9,3,9.3c2,2.6,4.6,3.6,7.9,3.6
				c3.3,0,6-1.3,7.9-3.6c2-2.6,3-5.6,3-9.3c0-3.6-1-6.9-3-9.3C-186.5,230.5-189.1,229.2-192.4,229.2z"/>
			<path id="XMLID_87_" class="st2" d="M-116.3,176.4h-156.5c-5.3,0-9.6,4.3-9.6,9.6v91.6c0,5.3,4.3,9.6,9.6,9.6h123.4
				c-1.3-1.3-2-2.6-2-4.3c0-1.3,0.3-2.6,1-4.3l6-12.9l-16.2-40.4c-0.3-1-0.7-2.3-0.7-3.6c0-1.7,0.7-3.3,2.3-4.3c1.3-1.3,3-2,4.6-2
				c3.6,0,6,1.7,7.3,5.3l9.9,27.5l10.6-27.5c1.3-3.3,3.6-5.3,7.3-5.3c1.7,0,3.3,0.7,4.6,2s2.3,2.6,2.3,4.3c0,1.3-0.3,2.6-0.7,3.6
				l-23.8,57.9c-0.7,1.7-1.3,3-2.3,4h22.8c5.3,0,9.6-4.3,9.6-9.6v-91.6C-106.8,180.4-111.1,176.4-116.3,176.4z M-226.8,237.9
				c-5,4.6-11.2,6.6-18.5,6.6h-11.9v17.2c0,2.6-0.7,4.6-2.3,6c-1.3,1.3-3.3,2.3-5.6,2.3c-2.3,0-4.3-0.7-5.6-2.3
				c-1.3-1.3-2.3-3.6-2.3-6v-59.5c0-5.6,2.6-8.3,8.3-8.3h18.9c7.9,0,14.2,2.3,19.5,6.9c5,4.6,7.6,10.9,7.6,18.2
				C-218.9,227.2-221.5,233.2-226.8,237.9z M-165.6,261.4c0,2.3-0.7,4-2.3,5.6c-1.7,1.7-3.3,2.3-5.6,2.3c-3.3,0-6-1.7-7.6-5
				c-3.3,4-7.9,6-13.9,6c-6.9,0-12.9-2.6-17.5-7.9s-7.3-11.9-7.3-19.8s2.3-14.2,7.3-19.8c4.6-5.3,10.6-7.9,17.5-7.9
				c6,0,10.3,2,13.9,6c1.7-3.3,4-5,7.6-5c2.3,0,4.3,0.7,5.6,2.3c1.7,1.7,2.3,3.3,2.3,5.6V261.4z"/>
		</g>
	</g>
</g>
<g id="XMLID_1772_">
	<g id="XMLID_5594_">
		<g id="XMLID_5602_">
			<path id="XMLID_5609_" class="st0" d="M236.7,85.1c-3.2-3.2-7.2-4.8-12.1-4.8c-7.2,0-12.4,3.4-15.7,10.3
				c-7-8.3-16.6-12.4-28.8-12.4c-14.6,0-26.9,5.6-36.9,16.9s-14.9,25.1-14.9,41.3s5,30,14.9,41.3c10,11.3,22.3,16.9,36.9,16.9
				c12.2,0,21.8-4.1,28.8-12.4c3.3,6.9,8.5,10.3,15.7,10.3c4.9,0,8.9-1.6,12.1-4.9c3.2-3.2,4.7-7.2,4.7-11.9V96.7
				C241.5,92.2,239.9,88.2,236.7,85.1z M201.8,155.9c-4.1,5.3-9.7,7.9-16.9,7.9c-7.2,0-12.8-2.6-16.9-7.9s-6.1-11.8-6.1-19.6
				c0-7.8,2-14.3,6.1-19.6c4.1-5.3,9.7-7.9,16.9-7.9c7.2,0,12.8,2.6,16.9,7.9s6.1,11.8,6.1,19.6
				C207.9,144.2,205.8,150.7,201.8,155.9z"/>
			<path id="XMLID_5608_" class="st0" d="M279.5,190.1c-3.2,3.2-7.2,4.9-12,4.9c-4.9,0-8.9-1.6-12.1-4.9c-3.2-3.2-4.7-7.2-4.7-11.9
				V33c0-4.7,1.6-8.6,4.7-11.9c3.2-3.2,7.2-4.8,12.1-4.8s8.9,1.6,12,4.8c3.2,3.2,4.7,7.2,4.7,11.9v145.2
				C284.2,182.9,282.6,186.8,279.5,190.1L279.5,190.1z"/>
			<path id="XMLID_5605_" class="st0" d="M390.6,95.1c-10.8-11.3-24.5-16.9-41.1-16.9s-30.2,5.6-40.8,16.7
				c-10.5,11.1-15.8,25-15.8,41.5s5.3,30.4,15.8,41.5c10.5,11.2,24.1,16.7,40.8,16.7c16.6,0,30.3-5.6,41.1-16.9
				c10.3-11,15.5-24.8,15.5-41.3C406.1,119.8,401,106.1,390.6,95.1z M366.4,155.9c-4.1,5.3-9.7,7.9-16.9,7.9
				c-7.2,0-12.8-2.6-16.9-7.9s-6.1-11.8-6.1-19.6c0-7.8,2-14.3,6.1-19.6c4.1-5.3,9.7-7.9,16.9-7.9c7.2,0,12.8,2.6,16.9,7.9
				c4.1,5.3,6.1,11.8,6.1,19.6C372.6,144.2,370.5,150.7,366.4,155.9z"/>
			<path id="XMLID_5603_" class="st0" d="M109.7,82.1c11.9-15.3,17.8-25.6,17.8-30.9c0-12.3-7.7-18.4-23.2-18.4H22.8
				c-6.4,0-11.4,1.5-14.9,4.5s-5.3,7-5.3,11.8s1.8,8.8,5.3,11.8s8.5,4.5,14.9,4.5h56L7.2,158c-4.7,6.1-7,11.4-7,16.1
				c0,13.5,8.9,20.2,26.7,20.2h84c13.4,0,20.1-5.6,20.1-16.9s-6.7-16.9-20.1-16.9H49.1L109.7,82.1L109.7,82.1z"/>
		</g>
		<g id="XMLID_5595_">
			<path id="XMLID_5601_" class="st1" d="M493.5,65.8h-22.1v45.9h22.1c6.6,0,12-2.2,16.1-6.5s6.2-9.8,6.2-16.5
				c0-6.6-2.1-12.1-6.2-16.5C505.5,68.1,500.2,65.8,493.5,65.8z"/>
			<path id="XMLID_5600_" class="st1" d="M603.7,110.8c-7,0-12.5,2.6-16.5,7.7c-4,5.2-6,11.5-6,19.1s2,14,6,19.1s9.5,7.7,16.5,7.7
				s12.5-2.6,16.5-7.7c4-5.2,6-11.5,6-19.1s-2-14-6-19.1C616.3,113.3,610.7,110.8,603.7,110.8z"/>
			<path id="XMLID_5596_" class="st1" d="M760.6,0.2H441.9c-10.7,0-19.3,8.7-19.3,19.3v187.7c0,10.7,8.7,19.3,19.3,19.3h250.5
				c-2.7-2.5-4-5.5-4-8.9c0-2.8,0.6-5.7,1.9-8.7l11.9-26.5l-33-82.3c-1-2.3-1.5-4.9-1.5-7.7c0-3.6,1.5-6.6,4.6-9.1
				c3-2.5,6.2-3.7,9.5-3.7c7.3,0,12.3,3.5,14.9,10.6l20.5,56.2l22-56.2c2.8-7.1,8.6-10.6,15.8-10.6c3.3,0,6.5,1.2,9.5,3.7
				s4.6,5.5,4.6,9.1c0,2.8-0.5,5.3-1.5,7.7l-49.7,118.6c-1.3,3.3-2.9,5.9-4.8,7.8h47.4c10.7,0,19.3-8.7,19.3-19.3V19.5
				C780,8.9,771.3,0.2,760.6,0.2z M533.6,126.5c-10.1,9.2-22.8,13.9-38.1,13.9h-24v37.3c0,5.3-1.5,9.5-4.5,12.5s-6.9,4.4-11.7,4.4
				s-8.7-1.5-11.7-4.4c-3-3-4.5-7.1-4.5-12.5V54.1c0-11.3,5.6-16.9,16.9-16.9h38.2c16,0,29.3,4.8,39.7,14.4
				c10.5,9.6,15.7,22.1,15.7,37.4C549.6,104.5,544.3,117,533.6,126.5z M659,176.2c0,4.6-1.5,8.4-4.6,11.6s-7,4.7-11.8,4.7
				c-7,0-12.1-3.4-15.3-10.1c-6.9,8.1-16.3,12.1-28.2,12.1c-14.3,0-26.3-5.5-36.1-16.5c-9.7-11-14.6-26.3-14.6-42.1
				c0-15.9,4.9-29.3,14.6-40.4c9.7-11,21.8-16.5,36.1-16.5c11.9,0,21.3,4,28.2,12.1c3.2-6.7,8.3-10.1,15.3-10.1
				c4.8,0,8.7,1.6,11.8,4.7c3.1,3.2,4.6,7,4.6,11.6V176.2z"/>
		</g>
	</g>
	<g id="XMLID_5545_">
		<path id="XMLID_5592_" class="st0" d="M99.7,324.4h-5.2V287H81v-4.7h32.3v4.7H99.8v37.3H99.7z"/>
		<path id="XMLID_5590_" class="st0" d="M118.5,324.4v-43.9h5.1v17.6h0.1c2-3.6,5.4-5.4,10.3-5.4c3.4,0,6.2,1.1,8.3,3.2
			c2.1,2.1,3.2,5,3.2,8.4v20h-5.1v-19.1c0-2.5-0.7-4.5-2.1-5.9s-3.4-2.1-5.8-2.1c-2.7,0-4.8,0.8-6.4,2.5c-1.6,1.7-2.4,3.9-2.4,6.6
			v18.1H118.5L118.5,324.4z"/>
		<path id="XMLID_5587_" class="st0" d="M161.3,324.6c-3.2,0-5.7-0.8-7.7-2.5c-1.9-1.7-2.9-3.9-2.9-6.7c0-2.7,1-4.8,3-6.4
			c2-1.5,4.9-2.4,8.7-2.7l8.8-0.5v-2.6c0-1.9-0.6-3.4-1.9-4.5c-1.2-1-3-1.6-5.3-1.6c-1.8,0-3.4,0.4-4.6,1.3c-1.3,0.9-2,2-2.3,3.5
			h-4.9c0.1-2.6,1.3-4.9,3.5-6.7c2.3-1.8,5.1-2.7,8.4-2.7c3.7,0,6.7,0.9,8.9,2.8c2.2,1.8,3.3,4.3,3.3,7.4v21.6h-4.8V319h-0.1
			c-0.9,1.7-2.3,3.1-4.1,4.2C165.5,324.1,163.5,324.6,161.3,324.6z M162.4,320.3c2.6,0,4.7-0.7,6.4-2.2c1.7-1.5,2.5-3.4,2.5-5.6V310
			l-8.2,0.5c-4.8,0.3-7.2,2-7.2,5c0,1.5,0.6,2.6,1.8,3.5C158.8,319.9,160.4,320.3,162.4,320.3z"/>
		<path id="XMLID_5585_" class="st0" d="M183.1,324.4V293h4.8v5.1h0.1c2-3.6,5.4-5.4,10.3-5.4c3.5,0,6.2,1,8.2,3.1s3,4.9,3,8.5v20.1
			h-5.1v-19.2c0-2.6-0.7-4.5-2-5.9s-3.2-2-5.7-2c-2.6,0-4.7,0.8-6.2,2.4c-1.6,1.6-2.3,3.8-2.3,6.5v18.2L183.1,324.4L183.1,324.4z"/>
		<path id="XMLID_5583_" class="st0" d="M216.4,324.4v-43.9h5.1v17.6h0.1c2-3.6,5.4-5.4,10.3-5.4c3.4,0,6.2,1.1,8.3,3.2
			c2.1,2.1,3.2,5,3.2,8.4v20h-5.1v-19.1c0-2.5-0.7-4.5-2.1-5.9s-3.4-2.1-5.8-2.1c-2.7,0-4.8,0.8-6.4,2.5c-1.6,1.7-2.4,3.9-2.4,6.6
			v18.1H216.4L216.4,324.4z"/>
		<path id="XMLID_5581_" class="st0" d="M266,286h5.1v7.1h6.1v4.2h-6.1v18.8c0,1.4,0.3,2.5,0.9,3.2c0.6,0.7,1.6,1,3,1
			c0.9,0,1.6,0,2.2-0.1v4.3c-0.7,0.2-1.8,0.3-3.3,0.3c-2.8,0-4.9-0.6-6.1-1.9s-1.8-3.4-1.8-6.5v-19h-4.4v-4.2h4.4L266,286L266,286z"
			/>
		<path id="XMLID_5578_" class="st0" d="M305.4,320.4c-2.6,2.9-6.1,4.3-10.5,4.3s-7.9-1.4-10.5-4.3s-3.9-6.8-3.9-11.6
			c0-4.9,1.3-8.8,3.9-11.7s6.1-4.3,10.5-4.3s7.9,1.4,10.5,4.3s3.9,6.8,3.9,11.7C309.4,313.6,308,317.5,305.4,320.4z M294.9,320.1
			c2.9,0,5.2-1,6.9-3c1.6-2,2.5-4.8,2.5-8.4s-0.8-6.4-2.5-8.4c-1.6-2-3.9-3-6.9-3c-2.9,0-5.2,1-6.9,3c-1.6,2-2.5,4.8-2.5,8.4
			c0,3.6,0.8,6.4,2.5,8.4C289.7,319.1,292,320.1,294.9,320.1z"/>
		<path id="XMLID_5574_" class="st0" d="M323.9,324.6c-3.2,0-5.7-0.8-7.7-2.5c-1.9-1.7-2.9-3.9-2.9-6.7c0-2.7,1-4.8,3-6.4
			c2-1.5,4.9-2.4,8.7-2.7l8.8-0.5v-2.6c0-1.9-0.6-3.4-1.9-4.5c-1.2-1-3-1.6-5.3-1.6c-1.8,0-3.4,0.4-4.6,1.3c-1.3,0.9-2,2-2.3,3.5
			h-4.9c0.1-2.6,1.3-4.9,3.5-6.7c2.3-1.8,5.1-2.7,8.4-2.7c3.7,0,6.7,0.9,8.9,2.8c2.2,1.8,3.3,4.3,3.3,7.4v21.6h-4.8V319H334
			c-0.9,1.7-2.3,3.1-4.1,4.2C328.1,324.1,326,324.6,323.9,324.6z M324.9,320.3c2.6,0,4.7-0.7,6.4-2.2c1.7-1.5,2.5-3.4,2.5-5.6V310
			l-8.2,0.5c-4.8,0.3-7.2,2-7.2,5c0,1.5,0.6,2.6,1.8,3.5C321.4,319.9,323,320.3,324.9,320.3z M328.7,288h-4.3l6.1-8.7h5.8L328.7,288
			z"/>
		<path id="XMLID_5572_" class="st0" d="M345.6,324.4V293h4.8v5.1h0.1c2-3.6,5.4-5.4,10.3-5.4c3.5,0,6.2,1,8.2,3.1s3,4.9,3,8.5v20.1
			h-5.1v-19.2c0-2.6-0.7-4.5-2-5.9s-3.2-2-5.7-2c-2.6,0-4.7,0.8-6.2,2.4c-1.6,1.6-2.3,3.8-2.3,6.5v18.2L345.6,324.4L345.6,324.4z"/>
		<path id="XMLID_5570_" class="st0" d="M394.6,286h5.1v7.1h6.1v4.2h-6.1v18.8c0,1.4,0.3,2.5,0.9,3.2c0.6,0.7,1.6,1,3,1
			c0.9,0,1.6,0,2.2-0.1v4.3c-0.7,0.2-1.8,0.3-3.3,0.3c-2.8,0-4.9-0.6-6.1-1.9c-1.2-1.3-1.8-3.4-1.8-6.5v-19h-4.4v-4.2h4.4V286z"/>
		<path id="XMLID_5568_" class="st0" d="M411.4,324.4V293h4.8v5.1h0.1c0.5-1.7,1.4-3,2.8-3.9c1.4-1,3-1.5,4.8-1.5
			c0.8,0,1.4,0.1,2,0.2v5c-0.5-0.2-1.4-0.4-2.6-0.4c-2,0-3.7,0.7-4.9,2c-1.2,1.4-1.9,3.1-1.9,5.4v19.4h-5.1V324.4z"/>
		<path id="XMLID_5565_" class="st0" d="M452.3,320.4c-2.6,2.9-6.1,4.3-10.5,4.3s-7.9-1.4-10.5-4.3s-3.9-6.8-3.9-11.6
			c0-4.9,1.3-8.8,3.9-11.7c2.6-2.9,6.1-4.3,10.5-4.3s7.9,1.4,10.5,4.3s3.9,6.8,3.9,11.7C456.3,313.6,454.9,317.5,452.3,320.4z
			 M441.8,320.1c2.9,0,5.2-1,6.9-3c1.6-2,2.5-4.8,2.5-8.4s-0.8-6.4-2.5-8.4c-1.6-2-3.9-3-6.9-3c-2.9,0-5.2,1-6.9,3
			c-1.6,2-2.5,4.8-2.5,8.4c0,3.6,0.8,6.4,2.5,8.4C436.6,319.1,438.9,320.1,441.8,320.1z"/>
		<path id="XMLID_5563_" class="st0" d="M461.6,324.4V293h4.8v5.1h0.1c2-3.6,5.4-5.4,10.3-5.4c3.5,0,6.2,1,8.2,3.1s3,4.9,3,8.5v20.1
			h-5.1v-19.2c0-2.6-0.7-4.5-2-5.9s-3.2-2-5.7-2c-2.6,0-4.7,0.8-6.2,2.4c-1.6,1.6-2.3,3.8-2.3,6.5v18.2L461.6,324.4L461.6,324.4z"/>
		<path id="XMLID_5560_" class="st0" d="M507.4,335.6c-3.6,0-6.5-0.8-8.9-2.4s-3.7-3.7-4.1-6.3h5.3c0.4,1.3,1.3,2.3,2.7,3.1
			c1.4,0.8,3.2,1.1,5.3,1.1c2.7,0,4.9-0.7,6.5-2c1.6-1.3,2.4-3.1,2.4-5.3V319h-0.1c-1,1.7-2.4,3-4.1,4c-1.8,0.9-3.7,1.4-5.9,1.4
			c-4,0-7.2-1.4-9.6-4.4c-2.4-2.9-3.7-6.7-3.7-11.5c0-4.8,1.2-8.6,3.7-11.5c2.4-2.9,5.7-4.3,9.7-4.3c2.2,0,4.2,0.5,6,1.4
			s3.2,2.3,4.2,4h0.1V293h4.8v30.5c0,3.7-1.3,6.7-3.8,8.9C515.3,334.6,511.8,335.6,507.4,335.6z M507.3,319.9c2.8,0,5-1,6.7-3.1
			s2.5-4.8,2.5-8.2s-0.9-6.1-2.5-8.2c-1.7-2.1-3.9-3.1-6.7-3.1c-2.7,0-4.9,1-6.6,3.1c-1.7,2.1-2.5,4.8-2.5,8.3
			c0,3.4,0.8,6.2,2.5,8.2S504.6,319.9,507.3,319.9z"/>
		<path id="XMLID_5558_" class="st0" d="M542.9,290.9c0-4.1,1.5-7.5,4.4-10.3c3-2.7,6.7-4.1,11.1-4.1c4.2,0,7.8,1.2,10.7,3.8
			c2.9,2.5,4.4,5.6,4.4,9.2c0,2.6-0.7,5.1-2.2,7.5c-1.4,2.4-4.1,5.7-8.1,9.8L551.3,319v0.1h22.9v5.2h-31v-4l16.6-17.5
			c3.2-3.3,5.2-5.9,6.3-7.6c1-1.7,1.5-3.6,1.5-5.5c0-2.3-0.9-4.2-2.7-5.8s-4-2.4-6.6-2.4c-2.8,0-5.1,0.9-6.9,2.6
			c-1.9,1.8-2.8,4-2.8,6.6l0,0L542.9,290.9L542.9,290.9z"/>
		<path id="XMLID_5555_" class="st0" d="M607.6,335.6c-3.6,0-6.5-0.8-8.9-2.4s-3.7-3.7-4.1-6.3h5.3c0.4,1.3,1.3,2.3,2.7,3.1
			c1.4,0.8,3.2,1.1,5.3,1.1c2.7,0,4.9-0.7,6.5-2c1.6-1.3,2.4-3.1,2.4-5.3V319h-0.1c-1,1.7-2.4,3-4.1,4c-1.8,0.9-3.7,1.4-5.9,1.4
			c-4,0-7.2-1.4-9.6-4.4c-2.4-2.9-3.7-6.7-3.7-11.5c0-4.8,1.2-8.6,3.7-11.5c2.4-2.9,5.7-4.3,9.7-4.3c2.2,0,4.2,0.5,6,1.4
			s3.2,2.3,4.2,4h0.1V293h4.8v30.5c0,3.7-1.3,6.7-3.8,8.9C615.5,334.6,612,335.6,607.6,335.6z M607.6,319.9c2.8,0,5-1,6.7-3.1
			s2.5-4.8,2.5-8.2s-0.8-6.1-2.5-8.2c-1.7-2.1-3.9-3.1-6.7-3.1c-2.7,0-4.9,1-6.6,3.1c-1.6,2.1-2.5,4.8-2.5,8.3
			c0,3.4,0.8,6.2,2.5,8.2C602.6,318.9,604.8,319.9,607.6,319.9z"/>
		<path id="XMLID_5552_" class="st0" d="M631.5,288c-0.9,0-1.6-0.3-2.3-0.9c-0.6-0.6-0.9-1.4-0.9-2.3c0-0.9,0.3-1.7,0.9-2.3
			c0.6-0.6,1.4-0.9,2.3-0.9c0.9,0,1.7,0.3,2.3,0.9s0.9,1.4,0.9,2.3s-0.3,1.6-0.9,2.3C633.2,287.6,632.4,288,631.5,288z M629,324.4
			V293h5.1v31.4H629z"/>
		<path id="XMLID_5548_" class="st0" d="M650.4,324.6c-3.2,0-5.7-0.8-7.7-2.5c-1.9-1.7-2.9-3.9-2.9-6.7c0-2.7,1-4.8,3-6.4
			c2-1.5,4.9-2.4,8.7-2.7l8.8-0.5v-2.6c0-1.9-0.6-3.4-1.9-4.5c-1.2-1-3-1.6-5.3-1.6c-1.8,0-3.4,0.4-4.6,1.3c-1.3,0.9-2,2-2.3,3.5
			h-4.9c0.1-2.6,1.3-4.9,3.5-6.7c2.3-1.8,5.1-2.7,8.4-2.7c3.7,0,6.7,0.9,8.9,2.8c2.2,1.8,3.3,4.3,3.3,7.4v21.6h-4.8V319h-0.1
			c-0.9,1.7-2.3,3.1-4.1,4.2C654.6,324.1,652.6,324.6,650.4,324.6z M654.9,279.3l8.1,8.7h-4.7l-5-5.7h-0.2l-5,5.7h-4.7l8.1-8.7
			H654.9z M651.5,320.3c2.6,0,4.7-0.7,6.4-2.2s2.5-3.4,2.5-5.6V310l-8.2,0.5c-4.8,0.3-7.2,2-7.2,5c0,1.5,0.6,2.6,1.8,3.5
			C647.9,319.9,649.5,320.3,651.5,320.3z"/>
		<path id="XMLID_5546_" class="st0" d="M674.9,335.8c-0.8,0-1.5-0.1-2.2-0.2v-4.3c0.6,0.1,1.3,0.2,2.1,0.2c1.5,0,2.6-0.4,3.5-1.2
			c0.9-0.8,1.6-2.1,2.3-4l0.6-1.9L669.5,293h5.4l8.8,26.2h0.1l8.8-26.2h5.3l-12.3,33.3c-1.3,3.6-2.8,6.1-4.3,7.5
			S677.6,335.8,674.9,335.8z"/>
	</g>
</g>
</svg>
