<svg xmlns="http://www.w3.org/2000/svg" version="1.1" xmlns:xlink="http://www.w3.org/1999/xlink" width="512" height="512" x="0" y="0" viewBox="0 0 512 512" style="enable-background:new 0 0 512 512" xml:space="preserve" class=""><g><path d="M107.34 372.017v79.287c45.161 1.992 32.13 9.972 110.705 45.301 10.008 3.937 33.109 10.385 57.85-.984l.049-.02 154.365-55.27c5.023-2.311 30.361-16.078 20.367-41.717-11.684-27.341-41.751-15.936-44.271-15.116l-80.589 22.281" style="" fill="#eac092" data-original="#eac092"></path><path d="m198.517 405.188 89.749 28.441c15.663 4.454 31.97-4.633 36.424-20.296 4.454-15.663-4.633-31.97-22.58-38.63l-79.618-27.022c-.003-.006-16.999-27.76-57.472-27.76-25.556 0-47.588 20.656-57.679 38.737v36.104" style="" fill="#fedbab" data-original="#fedbab" class=""></path><path d="M162.75 403.853c-.65 0-1.31-.07-1.95-.2a9.69 9.69 0 0 1-1.88-.57c-.6-.25-1.18-.56-1.72-.921-.55-.36-1.06-.78-1.52-1.24s-.88-.97-1.24-1.52c-.37-.54-.67-1.12-.92-1.73-.25-.6-.45-1.23-.57-1.87-.13-.64-.2-1.3-.2-1.95 0-.65.07-1.31.2-1.95.12-.64.32-1.27.57-1.88.25-.6.55-1.18.92-1.72.36-.55.78-1.06 1.24-1.52s.97-.88 1.52-1.24c.54-.36 1.12-.67 1.72-.92a9.69 9.69 0 0 1 1.88-.57c1.28-.26 2.61-.26 3.9 0 .64.12 1.27.32 1.87.57.61.25 1.19.56 1.73.92.55.36 1.06.78 1.52 1.24s.88.97 1.24 1.52c.36.54.67 1.12.92 1.72.25.61.44 1.24.57 1.88s.2 1.3.2 1.95a10.098 10.098 0 0 1-.77 3.82 9.87 9.87 0 0 1-.92 1.73c-.36.55-.78 1.06-1.24 1.52s-.97.88-1.52 1.24c-.54.36-1.12.671-1.73.921-.6.25-1.23.45-1.87.57-.64.13-1.3.2-1.95.2z" fill="#000000" opacity="1" data-original="#000000" class=""></path><path d="M69.46 357.379h37.883v107.44H69.46z" style="" fill="#eaecf0" data-original="#eaecf0"></path><path d="M10 357.379h59.46v126.08H10z" style="" fill="#3688c8" data-original="#3688c8"></path><path d="M459.993 394.982a9.705 9.705 0 0 0-.121-.297c-9.204-21.537-30.79-29.497-56.336-20.772l-69.668 19.266c-4.028-12.198-14.075-22.578-28.281-27.85a11.876 11.876 0 0 0-.265-.094l-76.581-25.992c-6.374-8.239-26.34-29.321-63.723-29.321-26.125 0-49.236 17.922-62.458 37.457H10c-5.523 0-10 4.477-10 10v126.077c0 5.523 4.477 10 10 10h59.457c5.523 0 10-4.477 10-10v-8.634h27.883c5.523 0 10-4.477 10-10v-2.878c16.254 1.418 21.6 4.501 36.528 13.109 11.48 6.62 28.831 16.625 60.077 30.674.145.065.292.127.439.185 5.997 2.359 17.72 6.065 32.173 6.065 10.06 0 21.445-1.797 33.131-7.094l153.991-55.136c.274-.098.544-.208.808-.33 14.717-6.771 36.648-25.854 25.506-54.435zM59.457 473.455H20V367.378h39.457v106.077zm37.883-18.634H79.457v-87.443H97.34v87.443zm329.156-23.747-153.922 55.111a12.33 12.33 0 0 0-.854.348c-21.437 9.852-41.814 3.954-49.8.849-30.182-13.581-46.291-22.87-58.061-29.657-16.364-9.436-24.249-13.984-46.519-15.823V361.36c9.479-15.536 27.861-31.439 47.679-31.439 33.986 0 48.387 22.105 48.953 22.997a10 10 0 0 0 5.305 4.232l79.475 26.974c12.693 4.764 19.401 15.634 16.318 26.474a19.354 19.354 0 0 1-9.257 11.691 19.367 19.367 0 0 1-14.683 1.758l-89.593-28.392c-5.268-1.669-10.886 1.247-12.554 6.512-1.669 5.265 1.247 10.885 6.512 12.554l89.749 28.441c.095.03.19.059.286.086a39.657 39.657 0 0 0 10.857 1.523c6.638 0 13.203-1.691 19.161-5.011 9.213-5.133 15.875-13.547 18.759-23.692.23-.81.434-1.62.611-2.43l75.083-20.8c10.844-3.704 25.079-5.039 31.417 9.558 6.56 17.137-10.49 26.564-14.922 28.678z" fill="#000000" opacity="1" data-original="#000000" class=""></path><path d="m239.903 98.841-88.818-88.818L39.729 121.38l190.287 190.287 105.082-105.082" style="" fill="#26cfad" data-original="#26cfad"></path><path d="m187.311 114.012.017-.06c-10.933.747-21.656 5.298-30.014 13.656-18.356 18.356-18.356 48.116 0 66.472s48.116 18.356 66.472 0c8.878-8.878 13.461-20.423 13.752-32.055" style="" fill="#ffd36c" data-original="#ffd36c" class=""></path><path d="M404.66 155.329V76.042c-45.161-1.992-32.13-9.972-110.705-45.301-10.008-3.937-33.109-10.385-57.85.984a.716.716 0 0 1-.049.02L189.483 48.42l48.054 48.054" style="" fill="#eac092" data-original="#eac092"></path><path d="m39.729 121.38 37.752-37.752c20.819 20.819 20.819 54.685 0 75.504L39.729 121.38zM192.264 273.915c20.819-20.819 54.685-20.819 75.504 0l-37.752 37.752-37.752-37.752zM113.333 47.775l37.752-37.752 37.752 37.752c-20.818 20.819-54.685 20.819-75.504 0zM291.206 182.048c-6.844 18.889-2.706 40.893 12.415 56.014l31.477-31.477" style="" fill="#00b192" data-original="#00b192" class=""></path><path d="m313.483 122.158-89.749-28.441c-15.663-4.454-31.97 4.633-36.423 20.296-4.454 15.663 4.633 31.97 22.58 38.63l79.651 27.033-.033-.011s16.994 27.76 57.472 27.76c25.556 0 47.588-20.656 57.679-38.737v-36.104" style="" fill="#fedbab" data-original="#fedbab" class=""></path><path d="M349.25 143.493a10.098 10.098 0 0 1-3.82-.77 9.87 9.87 0 0 1-1.73-.92c-.55-.36-1.06-.78-1.52-1.24s-.88-.97-1.24-1.52a9.87 9.87 0 0 1-.92-1.73c-.25-.6-.45-1.23-.57-1.87-.13-.64-.2-1.3-.2-1.95s.07-1.31.2-1.95c.12-.64.32-1.27.57-1.88.25-.6.56-1.18.92-1.72.36-.55.78-1.06 1.24-1.52s.97-.88 1.52-1.24a9.87 9.87 0 0 1 1.73-.92c.6-.25 1.23-.45 1.87-.57 1.29-.26 2.62-.26 3.91 0 .63.12 1.26.32 1.87.57.6.25 1.18.56 1.72.92.55.36 1.06.78 1.52 1.24s.88.97 1.24 1.52c.37.54.67 1.12.92 1.72a9.721 9.721 0 0 1 .77 3.83c0 .65-.06 1.31-.19 1.95s-.32 1.27-.58 1.87c-.25.61-.55 1.19-.92 1.73-.36.55-.78 1.06-1.24 1.52s-.97.88-1.52 1.24c-.54.36-1.12.67-1.72.92-.61.25-1.24.44-1.87.57-.65.13-1.31.2-1.96.2z" fill="#000000" opacity="1" data-original="#000000" class=""></path><path d="M404.66 62.529h37.883v107.44H404.66z" style="" fill="#eaecf0" data-original="#eaecf0"></path><path d="M442.54 43.891H502v126.08h-59.46z" style="" fill="#3688c8" data-original="#3688c8"></path><path d="M502 33.891h-59.457c-5.523 0-10 4.477-10 10v8.634H404.66c-5.523 0-10 4.477-10 10v2.878c-16.254-1.419-21.6-4.501-36.527-13.109-11.48-6.62-28.831-16.625-60.078-30.674a8.51 8.51 0 0 0-.44-.185c-10.171-4.002-36.828-11.876-65.299 1.027l-40.24 14.408-33.919-33.918c-3.905-3.905-10.237-3.905-14.142 0L32.657 114.309c-3.602 3.603-4.293 9.85 0 14.143l190.287 190.287c3.045 3.046 10.175 3.967 14.143 0l101.665-101.664c2.643.228 5.386.351 8.229.351 26.126 0 49.236-17.922 62.457-37.456H502c5.523 0 10-4.477 10-10V43.891c0-5.523-4.477-10-10-10zm-325.551 92.742c1.846 15.362 12.907 29.055 29.964 35.385.088.032.176.064.265.094l19.996 6.787c-1.51 6.815-4.927 13.081-9.957 18.112-14.428 14.426-37.904 14.428-52.33 0-14.428-14.427-14.428-37.902 0-52.33a36.977 36.977 0 0 1 12.062-8.048zm20.003-39.047c-7.168 3.994-12.792 9.975-16.294 17.211a56.985 56.985 0 0 0-29.915 15.741c-22.225 22.226-22.225 58.389.001 80.615 11.112 11.112 25.709 16.669 40.307 16.669 14.597 0 29.195-5.556 40.308-16.669 7.23-7.23 12.295-16.116 14.832-25.8l33.764 11.459c-3.801 17.608.092 36.132 10.593 50.682l-22.837 22.837c-22.098-16.03-52.292-16.03-74.39 0L91.07 158.579c7.809-10.74 12.025-23.641 12.025-37.199 0-13.559-4.215-26.459-12.025-37.199l22.817-22.816c10.74 7.809 23.64 12.025 37.199 12.025 13.559 0 26.459-4.216 37.199-12.025l21.629 21.629a39.465 39.465 0 0 0-13.462 4.592zm108.005 135.498a43.739 43.739 0 0 1-6.389-20.796 77.755 77.755 0 0 0 17.636 9.549l-11.247 11.247zM151.085 24.165l22.792 22.792c-6.775 4.19-14.608 6.432-22.792 6.432-8.185 0-16.017-2.241-22.792-6.432l22.792-22.792zM76.663 98.588c4.19 6.775 6.432 14.608 6.432 22.792s-2.241 16.017-6.432 22.793L53.871 121.38l22.792-22.792zm153.353 198.937-22.788-22.788c13.913-8.586 31.661-8.586 45.575 0l-22.787 22.788zm116.965-100.101c-3.708 0-7.183-.264-10.432-.734l-.039-.006c-21.596-3.137-33.213-15.411-37.042-20.271-.204-.3-1.073-1.437-1.202-1.626a9.964 9.964 0 0 0-5.511-4.583l-79.508-26.985c-12.688-4.762-19.395-15.627-16.321-26.463l.006-.021.007-.025a19.355 19.355 0 0 1 9.247-11.656 19.351 19.351 0 0 1 14.683-1.757l89.593 28.391c5.266 1.671 10.886-1.247 12.554-6.512s-1.247-10.885-6.512-12.554l-71.255-22.58-.622-.622-.019-.019-36.89-36.89 31.708-11.354c.107-.039.239-.088.345-.131l.105-.042a9.59 9.59 0 0 0 .403-.174c21.436-9.852 41.812-3.955 49.799-.849 30.183 13.581 46.293 22.87 58.063 29.657 16.364 9.437 24.249 13.984 46.518 15.823v80.542c-9.478 15.538-27.86 31.441-47.678 31.441zM414.66 72.525h17.883v87.443H414.66V72.525zM492 159.968h-39.457V53.891H492v106.077z" fill="#000000" opacity="1" data-original="#000000" class=""></path></g></svg>
