<?xml version="1.0" encoding="us-ascii" standalone="no"?><svg xmlns="http://www.w3.org/2000/svg" xmlns:xlink="http://www.w3.org/1999/xlink" contentStyleType="text/css" height="4792px" preserveAspectRatio="none" style="width:3376px;height:4792px;background:#FFFFFF;" version="1.1" viewBox="0 0 3376 4792" width="3376px" zoomAndPan="magnify"><defs/><g><text fill="#000000" font-family="sans-serif" font-size="56" font-weight="bold" lengthAdjust="spacing" textLength="992" x="1164.005" y="94.1406">UTE Locker - Component Diagram</text><!--cluster locker--><g id="cluster_locker"><path d="M281.3808,363.5103 C360.7999,225.4924 472.9586,227.9286 562.3929,352.8049 C642.659,207.6197 737.1039,215.638 833.8564,335.948 C929.8506,199.9134 1047.9052,196.2005 1143.9497,335.8914 C1223.4345,194.9851 1328.4301,207.306 1411.987,331.7785 C1481.0113,186.3219 1609.5593,182.9801 1680.4007,330.1116 C1779.407,173.9531 1888.7384,188.8375 1972.6322,344.2845 C2075.3999,209.0514 2181.0243,191.8302 2277.6173,350.6879 C2376.1993,230.9819 2481.9408,213.3993 2572.0393,360.0647 C2658.3634,238.5951 2775.8259,268.8396 2841.1228,383.9779 C2927.3566,239.3297 3028.0232,219.1369 3132.9852,365.1739 C3165.5475,356.9175 3192.3618,373.7002 3182.935,411.1059 C3299.2577,521.6724 3272.2244,602.4916 3142.8424,675.8486 C3280.7123,767.7244 3293.3618,863.7541 3177.6734,984.2656 C3278.3012,1083.9867 3274.7434,1177.579 3147.4062,1251.4784 C3289.2422,1338.8441 3310.5083,1441.3474 3167.9044,1548.3528 C3339.4366,1631.7957 3332.3375,1776.2474 3171.6535,1863.6407 C3306.3676,1942.4308 3288.0957,2047.8899 3164.3087,2119.2522 C3348.0099,2205.8943 3328.4879,2331.9526 3189.3653,2443.5383 C3299.4143,2529.6803 3282.5743,2669.3069 3154.7076,2726.2864 C3273.5764,2811.5346 3280.98,2932.4056 3146.3691,3010.2094 C3325.2039,3073.0058 3302.3005,3239.1216 3181.2997,3334.2403 C3281.1485,3426.144 3308.3425,3512.6929 3164.2344,3588.2038 C3308.334,3699.7062 3305.024,3796.4558 3139.2106,3881.5185 C3289.0376,3971.7529 3299.2296,4109.7428 3144.629,4205.0753 C3249.3885,4310.1455 3238.9137,4408.3464 3104.9852,4478.8539 C3126.2162,4459.5014 3147.8687,4468.3297 3156.6654,4493.3395 C3060.8126,4628.2394 2941.0427,4653.9255 2842.3797,4496.3593 C2751.3255,4650.1275 2643.9067,4616.4913 2557.3945,4491.7123 C2490.7141,4620.439 2389.4703,4648.245 2288.5511,4528.8036 C2183.5708,4654.0707 2075.7091,4662.7441 1985.1056,4512.9437 C1900.8091,4671.5271 1769.2053,4672.5117 1676.4225,4521.4023 C1604.1953,4676.0312 1460.1306,4671.7282 1387.892,4521.4132 C1320.2324,4649.3115 1199.6448,4644.6117 1129.8676,4523.6085 C1044.4031,4676.0357 908.4921,4690.4583 823.3719,4523.2783 C724.2105,4655.5298 641.7512,4616.3608 560.9047,4503.6543 C423.3229,4633.2424 296.8238,4629.6133 204.9852,4450.8539 C229.9255,4440.1247 251.0045,4444.9938 249.9733,4477.7333 C117.831,4413.7103 111.6317,4274.9732 221.0616,4186.9328 C70.1156,4083.8489 82.0427,3971.2949 236.6229,3883.9004 C88.969,3824.2374 74.6089,3699.8173 209.9953,3612.3953 C71.2742,3508.746 53.2702,3407.2279 200.5957,3295.1045 C78.8121,3213.5574 37.6116,3100.4717 189.5708,3008.3982 C47.0556,2917.2356 84.9517,2788.4079 222.1188,2729.936 C50.2823,2671.852 42.2074,2525.9608 179.7762,2424.9242 C77.5873,2335.582 71.967,2250.2024 186.3322,2166.3508 C28.7026,2049.9077 37.4326,1937.5516 204.2743,1838.8866 C78.2073,1744.6716 85.7348,1654.7004 225.5609,1582.5672 C68.9112,1509.4663 91.1509,1371.8194 208.1217,1282.8005 C44.152,1178.3915 24,1057.1574 205.3611,949.8849 C117.2723,852.9838 135.5447,768.6923 247.8936,706.8721 C81.9637,609.3771 58.9594,448.378 232.9852,337.1739 C259.1907,319.6389 281.9105,331.9165 281.3808,363.5103 " fill="none" style="stroke:#181818;stroke-width:4.0;"/><text fill="#000000" font-family="sans-serif" font-size="56" font-weight="bold" lengthAdjust="spacing" textLength="300" x="1518.9852" y="411.3146">UTELocker</text></g><!--cluster webserver--><g id="cluster_webserver"><polygon fill="none" points="268.9852,517.1739,308.9852,477.1739,3068.9852,477.1739,3068.9852,3632.8939,3028.9852,3672.8939,268.9852,3672.8939,268.9852,517.1739" style="stroke:#181818;stroke-width:4.0;"/><line style="stroke:#181818;stroke-width:4.0;" x1="3028.9852" x2="3068.9852" y1="517.1739" y2="477.1739"/><line style="stroke:#181818;stroke-width:4.0;" x1="268.9852" x2="3028.9852" y1="517.1739" y2="517.1739"/><line style="stroke:#181818;stroke-width:4.0;" x1="3028.9852" x2="3028.9852" y1="517.1739" y2="3672.8939"/><text fill="#000000" font-family="sans-serif" font-size="56" font-weight="bold" lengthAdjust="spacing" textLength="540" x="1382.9852" y="583.3146">Apache Web Server</text></g><!--cluster webapp--><g id="cluster_webapp"><path d="M374.9852,669.1739 L1318.9852,669.1739 A15,15 0 0 1 1328.9852,679.1739 L1356.9852,759.1271 L2962.9852,759.1271 A10,10 0 0 1 2972.9852,769.1271 L2972.9852,3566.8939 A10,10 0 0 1 2962.9852,3576.8939 L374.9852,3576.8939 A10,10 0 0 1 364.9852,3566.8939 L364.9852,679.1739 A10,10 0 0 1 374.9852,669.1739 " fill="none" style="stroke:#000000;stroke-width:6.0;"/><line style="stroke:#000000;stroke-width:6.0;" x1="364.9852" x2="1356.9852" y1="759.1271" y2="759.1271"/><text fill="#000000" font-family="sans-serif" font-size="56" font-weight="bold" lengthAdjust="spacing" textLength="940" x="380.9852" y="731.3146">UTE Locker - Laravel Framework</text></g><!--cluster presentation--><g id="cluster_presentation"><rect fill="none" height="1241.88" rx="10" ry="10" style="stroke:#181818;stroke-width:4.0;" width="1400" x="980.9852" y="841.1739"/><path d="M1556.9852,841.1739 L1556.9852,879.1271 L1516.9852,919.1271 L980.9852,919.1271 " fill="none" style="stroke:#181818;stroke-width:4.0;"/><text fill="#000000" font-family="sans-serif" font-size="56" font-weight="bold" lengthAdjust="spacing" textLength="536" x="992.9852" y="899.3146">Presentation Layer</text></g><!--cluster data--><g id="cluster_data"><rect fill="none" height="389.96" rx="10" ry="10" style="stroke:#181818;stroke-width:4.0;" width="2416" x="460.9852" y="3090.9339"/><path d="M1016.9852,3090.9339 L1016.9852,3128.8871 L976.9852,3168.8871 L460.9852,3168.8871 " fill="none" style="stroke:#181818;stroke-width:4.0;"/><text fill="#000000" font-family="sans-serif" font-size="56" font-weight="bold" lengthAdjust="spacing" textLength="516" x="472.9852" y="3149.0746">Data Access Layer</text></g><!--cluster service--><g id="cluster_service"><rect fill="none" height="815.88" rx="10" ry="10" style="stroke:#181818;stroke-width:4.0;" width="920" x="692.9852" y="2179.0539"/><path d="M1104.9852,2179.0539 L1104.9852,2217.0071 L1064.9852,2257.0071 L692.9852,2257.0071 " fill="none" style="stroke:#181818;stroke-width:4.0;"/><text fill="#000000" font-family="sans-serif" font-size="56" font-weight="bold" lengthAdjust="spacing" textLength="372" x="704.9852" y="2237.1946">Service Layer</text></g><!--cluster database--><g id="cluster_database"><path d="M1716.9852,3876.8939 C1716.9852,3836.8939 2176.9852,3836.8939 2176.9852,3836.8939 C2176.9852,3836.8939 2636.9852,3836.8939 2636.9852,3876.8939 L2636.9852,4342.8539 C2636.9852,4382.8539 2176.9852,4382.8539 2176.9852,4382.8539 C2176.9852,4382.8539 1716.9852,4382.8539 1716.9852,4342.8539 L1716.9852,3876.8939 " fill="none" style="stroke:#181818;stroke-width:4.0;"/><path d="M1716.9852,3876.8939 C1716.9852,3916.8939 2176.9852,3916.8939 2176.9852,3916.8939 C2176.9852,3916.8939 2636.9852,3916.8939 2636.9852,3876.8939 " fill="none" style="stroke:#181818;stroke-width:4.0;"/><text fill="#000000" font-family="sans-serif" font-size="56" font-weight="bold" lengthAdjust="spacing" textLength="856" x="1748.9852" y="3979.0346">UTELocker Database - MySQL</text></g><!--entity routing--><g id="elem_routing"><rect fill="#F1F1F1" height="185.9531" rx="10" ry="10" style="stroke:#181818;stroke-width:2.0;" width="376" x="540.9852" y="1407.1339"/><rect fill="#F1F1F1" height="40" style="stroke:#181818;stroke-width:2.0;" width="60" x="836.9852" y="1427.1339"/><rect fill="#F1F1F1" height="8" style="stroke:#181818;stroke-width:2.0;" width="16" x="828.9852" y="1435.1339"/><rect fill="#F1F1F1" height="8" style="stroke:#181818;stroke-width:2.0;" width="16" x="828.9852" y="1451.1339"/><text fill="#000000" font-family="sans-serif" font-size="56" lengthAdjust="spacing" textLength="216" x="600.9852" y="1541.2746">Routing</text></g><!--entity controllers--><g id="elem_controllers"><rect fill="#F1F1F1" height="185.9531" rx="10" ry="10" style="stroke:#181818;stroke-width:2.0;" width="468" x="1102.9852" y="1833.0939"/><rect fill="#F1F1F1" height="40" style="stroke:#181818;stroke-width:2.0;" width="60" x="1490.9852" y="1853.0939"/><rect fill="#F1F1F1" height="8" style="stroke:#181818;stroke-width:2.0;" width="16" x="1482.9852" y="1861.0939"/><rect fill="#F1F1F1" height="8" style="stroke:#181818;stroke-width:2.0;" width="16" x="1482.9852" y="1877.0939"/><text fill="#000000" font-family="sans-serif" font-size="56" lengthAdjust="spacing" textLength="308" x="1162.9852" y="1967.2346">Controllers</text></g><!--entity views--><g id="elem_views"><rect fill="#F1F1F1" height="185.9531" rx="10" ry="10" style="stroke:#181818;stroke-width:2.0;" width="1272" x="1044.9852" y="981.1739"/><rect fill="#F1F1F1" height="40" style="stroke:#181818;stroke-width:2.0;" width="60" x="2236.9852" y="1001.1739"/><rect fill="#F1F1F1" height="8" style="stroke:#181818;stroke-width:2.0;" width="16" x="2228.9852" y="1009.1739"/><rect fill="#F1F1F1" height="8" style="stroke:#181818;stroke-width:2.0;" width="16" x="2228.9852" y="1025.1739"/><text fill="#000000" font-family="sans-serif" font-size="56" lengthAdjust="spacing" textLength="1112" x="1104.9852" y="1115.3146">Views - Blade template engine and VueJs</text></g><!--entity models--><g id="elem_models"><rect fill="#F1F1F1" height="185.9531" rx="10" ry="10" style="stroke:#181818;stroke-width:2.0;" width="848" x="524.9852" y="3230.9339"/><rect fill="#F1F1F1" height="40" style="stroke:#181818;stroke-width:2.0;" width="60" x="1292.9852" y="3250.9339"/><rect fill="#F1F1F1" height="8" style="stroke:#181818;stroke-width:2.0;" width="16" x="1284.9852" y="3258.9339"/><rect fill="#F1F1F1" height="8" style="stroke:#181818;stroke-width:2.0;" width="16" x="1284.9852" y="3274.9339"/><text fill="#000000" font-family="sans-serif" font-size="56" lengthAdjust="spacing" textLength="688" x="584.9852" y="3365.0746">Models - Eloquent (ORM)</text></g><!--entity query--><g id="elem_query"><rect fill="#F1F1F1" height="185.9531" rx="10" ry="10" style="stroke:#181818;stroke-width:2.0;" width="740" x="1510.9852" y="3230.9339"/><rect fill="#F1F1F1" height="40" style="stroke:#181818;stroke-width:2.0;" width="60" x="2170.9852" y="3250.9339"/><rect fill="#F1F1F1" height="8" style="stroke:#181818;stroke-width:2.0;" width="16" x="2162.9852" y="3258.9339"/><rect fill="#F1F1F1" height="8" style="stroke:#181818;stroke-width:2.0;" width="16" x="2162.9852" y="3274.9339"/><text fill="#000000" font-family="sans-serif" font-size="56" lengthAdjust="spacing" textLength="580" x="1570.9852" y="3365.0746">Laravel Query Builder</text></g><!--entity migration--><g id="elem_migration"><rect fill="#F1F1F1" height="185.9531" rx="10" ry="10" style="stroke:#181818;stroke-width:2.0;" width="424" x="2388.9852" y="3230.9339"/><rect fill="#F1F1F1" height="40" style="stroke:#181818;stroke-width:2.0;" width="60" x="2732.9852" y="3250.9339"/><rect fill="#F1F1F1" height="8" style="stroke:#181818;stroke-width:2.0;" width="16" x="2724.9852" y="3258.9339"/><rect fill="#F1F1F1" height="8" style="stroke:#181818;stroke-width:2.0;" width="16" x="2724.9852" y="3274.9339"/><text fill="#000000" font-family="sans-serif" font-size="56" lengthAdjust="spacing" textLength="264" x="2448.9852" y="3365.0746">Migration</text></g><!--entity permission--><g id="elem_permission"><rect fill="#F1F1F1" height="185.9531" rx="10" ry="10" style="stroke:#181818;stroke-width:2.0;" width="696" x="780.9852" y="2319.0539"/><rect fill="#F1F1F1" height="40" style="stroke:#181818;stroke-width:2.0;" width="60" x="1396.9852" y="2339.0539"/><rect fill="#F1F1F1" height="8" style="stroke:#181818;stroke-width:2.0;" width="16" x="1388.9852" y="2347.0539"/><rect fill="#F1F1F1" height="8" style="stroke:#181818;stroke-width:2.0;" width="16" x="1388.9852" y="2363.0539"/><text fill="#000000" font-family="sans-serif" font-size="56" lengthAdjust="spacing" textLength="536" x="840.9852" y="2453.1946">Permission Services</text></g><!--entity business--><g id="elem_business"><rect fill="#F1F1F1" height="185.9531" rx="10" ry="10" style="stroke:#181818;stroke-width:2.0;" width="792" x="756.9852" y="2745.0139"/><rect fill="#F1F1F1" height="40" style="stroke:#181818;stroke-width:2.0;" width="60" x="1468.9852" y="2765.0139"/><rect fill="#F1F1F1" height="8" style="stroke:#181818;stroke-width:2.0;" width="16" x="1460.9852" y="2773.0139"/><rect fill="#F1F1F1" height="8" style="stroke:#181818;stroke-width:2.0;" width="16" x="1460.9852" y="2789.0139"/><text fill="#000000" font-family="sans-serif" font-size="56" lengthAdjust="spacing" textLength="632" x="816.9852" y="2879.1546">Business Logic Services</text></g><!--entity tables--><g id="elem_tables"><path d="M2096.9852,4068.8939 L2260.9852,4068.8939 A15,15 0 0 1 2270.9852,4078.8939 L2298.9852,4152.8939 L2464.9852,4152.8939 A10,10 0 0 1 2474.9852,4162.8939 L2474.9852,4276.8471 A10,10 0 0 1 2464.9852,4286.8471 L2096.9852,4286.8471 A10,10 0 0 1 2086.9852,4276.8471 L2086.9852,4078.8939 A10,10 0 0 1 2096.9852,4068.8939 " fill="#F1F1F1" style="stroke:#181818;stroke-width:2.0;"/><line style="stroke:#181818;stroke-width:2.0;" x1="2086.9852" x2="2298.9852" y1="4152.8939" y2="4152.8939"/><text fill="#000000" font-family="sans-serif" font-size="56" lengthAdjust="spacing" textLength="268" x="2126.9852" y="4235.0346">DB Tables</text></g><!--link views to controllers--><g id="link_views_controllers"><path d="M1642.1452,1189.7739 C1604.9452,1294.7339 1546.2252,1455.7739 1488.9852,1593.0939 C1458.3452,1666.6539 1420.7852,1747.9739 1390.7052,1811.3339 " fill="none" id="views-controllers" style="stroke:#181818;stroke-width:4.0;stroke-dasharray:7.0,7.0;"/><polygon fill="#181818" points="1649.7452,1172.2539,1622.635,1200.8378,1643.0619,1191.1042,1652.7955,1211.5311,1649.7452,1172.2539" style="stroke:#181818;stroke-width:4.0;"/><polygon fill="#181818" points="1380.7852,1828.1339,1410.7431,1802.5503,1389.4082,1810.0884,1381.8702,1788.7535,1380.7852,1828.1339" style="stroke:#181818;stroke-width:4.0;"/></g><!--link routing to controllers--><g id="link_routing_controllers"><path d="M860.9052,1594.8139 C956.5052,1660.5339 1085.9852,1749.5339 1185.7852,1818.1339 " fill="none" id="routing-to-controllers" style="stroke:#181818;stroke-width:4.0;"/><polygon fill="#181818" points="1201.3052,1831.5339,1180.7041,1797.9542,1184.8243,1820.2034,1162.5752,1824.3236,1201.3052,1831.5339" style="stroke:#181818;stroke-width:4.0;"/></g><!--link permission to business--><g id="link_permission_business"><path d="M1134.1852,2506.6939 C1137.7852,2569.1339 1142.5852,2652.5739 1146.4252,2719.5739 " fill="none" id="permission-to-business" style="stroke:#181818;stroke-width:4.0;"/><polygon fill="#181818" points="1147.7852,2739.4539,1161.6993,2702.5975,1146.6409,2719.4867,1129.7517,2704.4283,1147.7852,2739.4539" style="stroke:#181818;stroke-width:4.0;"/></g><!--link controllers to permission--><g id="link_controllers_permission"><path d="M1297.8652,2019.9739 C1263.7452,2098.4139 1214.0652,2212.5339 1177.4252,2296.7339 " fill="none" id="controllers-to-permission" style="stroke:#181818;stroke-width:4.0;"/><polygon fill="#181818" points="1167.9452,2314.5339,1197.0027,2287.9321,1175.9406,2296.2016,1167.671,2275.1395,1167.9452,2314.5339" style="stroke:#181818;stroke-width:4.0;"/></g><!--link business to controllers--><g id="link_business_controllers"><path d="M1320.6652,2743.1339 C1405.9852,2686.9339 1501.5052,2606.1339 1548.9852,2505.0139 C1616.5852,2360.9739 1609.0252,2294.3739 1548.9852,2147.0539 C1532.0652,2105.5339 1502.9852,2067.6539 1471.7052,2035.5739 " fill="none" id="business-to-controllers" style="stroke:#181818;stroke-width:4.0;"/><polygon fill="#181818" points="1460.1852,2024.2939,1474.6245,2060.9478,1474.4413,2038.3211,1497.068,2038.1379,1460.1852,2024.2939" style="stroke:#181818;stroke-width:4.0;"/></g><!--link business to models--><g id="link_business_models"><path d="M1105.3052,2953.6939 C1072.4252,3030.7739 1028.9052,3132.7339 996.1052,3209.4939 " fill="none" id="business-models" style="stroke:#181818;stroke-width:4.0;"/><polygon fill="#181818" points="1114.6252,2935.8539,1085.8082,2962.7162,1106.7951,2954.2575,1115.2538,2975.2444,1114.6252,2935.8539" style="stroke:#181818;stroke-width:4.0;"/><polygon fill="#181818" points="987.1852,3226.4139,1016.0021,3199.5516,995.0152,3208.0104,986.5565,3187.0235,987.1852,3226.4139" style="stroke:#181818;stroke-width:4.0;"/></g><!--link query to business--><g id="link_query_business"><path d="M1724.1452,3216.9339 C1601.2252,3136.2539 1431.1452,3024.5739 1308.5852,2944.1339 " fill="none" id="query-business" style="stroke:#181818;stroke-width:4.0;"/><polygon fill="#181818" points="1739.4252,3229.6139,1718.0837,3196.4999,1722.6968,3218.652,1700.5447,3223.2652,1739.4252,3229.6139" style="stroke:#181818;stroke-width:4.0;"/><polygon fill="#181818" points="1293.9052,2931.8539,1315.1946,2965.0015,1310.6163,2942.8421,1332.7756,2938.2637,1293.9052,2931.8539" style="stroke:#181818;stroke-width:4.0;"/></g><!--link migration to database--><g id="link_migration_database"><path d="M2557.5852,3418.7339 C2511.2252,3505.7339 2429.5052,3633.9739 2320.9852,3704.8939 C2207.9852,3778.7339 2125.9452,3683.2939 2024.9852,3772.8939 C2007.5602,3788.3639 1992.2433,3806.0977 1978.7795,3825.3039 C1977.0966,3827.7047 1975.4425,3830.1285 1973.817,3832.5738 C1973.0042,3833.7964 1972.1985,3835.0244 1971.3999,3836.2575 " fill="none" id="migration-to-database" style="stroke:#181818;stroke-width:4.0;"/><polygon fill="#181818" points="1971.3999,3836.2575,2004.3985,3814.7379,1982.2715,3819.4704,1977.539,3797.3434,1971.3999,3836.2575" style="stroke:#181818;stroke-width:4.0;"/></g><!--link models to database--><g id="link_models_database"><path d="M1065.9052,3434.0539 C1189.0252,3545.8139 1388.2952,3726.6839 1558.9802,3881.6089 C1601.6514,3920.3402 1642.5361,3957.4499 1679.9977,3991.4528 C1689.3631,3999.9535 1698.5146,4008.26 1707.4266,4016.3492 C1709.6546,4018.3715 1711.8676,4020.3802 1714.0652,4022.375 " fill="none" id="models-database" style="stroke:#181818;stroke-width:4.0;"/><polygon fill="#181818" points="1052.7452,3422.4539,1068.6549,3458.4939,1067.5569,3435.8932,1090.1576,3434.7951,1052.7452,3422.4539" style="stroke:#181818;stroke-width:4.0;"/><polygon fill="#181818" points="1714.0652,4022.375,1698.1622,3986.332,1699.256,4008.933,1676.655,4010.0268,1714.0652,4022.375" style="stroke:#181818;stroke-width:4.0;"/></g><!--link query to database--><g id="link_query_database"><path d="M1880.9852,3442.2139 C1880.9852,3499.0339 1880.9852,3572.1639 1880.9852,3650.1439 C1880.9852,3689.1339 1880.9852,3729.3364 1880.9852,3769.3189 C1880.9852,3789.3102 1880.9852,3809.2464 1880.9852,3828.9486 C1880.9852,3831.4114 1880.9852,3833.8705 1880.9852,3836.3256 " fill="none" id="query-database" style="stroke:#181818;stroke-width:4.0;"/><polygon fill="#181818" points="1880.9852,3422.4539,1864.9852,3458.4539,1880.9852,3442.4539,1896.9852,3458.4539,1880.9852,3422.4539" style="stroke:#181818;stroke-width:4.0;"/><polygon fill="#181818" points="1880.9852,3836.3256,1896.9852,3800.3256,1880.9852,3816.3256,1864.9852,3800.3256,1880.9852,3836.3256" style="stroke:#181818;stroke-width:4.0;"/></g><text fill="#888888" font-family="sans-serif" font-size="40" font-style="italic" lengthAdjust="spacing" textLength="660" x="1026.005" y="4753.1302">UTE Locker - Component Diagram</text><text fill="#888888" font-family="sans-serif" font-size="40" lengthAdjust="spacing" textLength="24" x="1698.005" y="4753.1302">-</text><text fill="#888888" font-family="sans-serif" font-size="40" font-weight="bold" lengthAdjust="spacing" textLength="560" x="1734.005" y="4753.1302">Created date: 11/08/2023</text><!--SRC=[XLJ9Rjim4BthAmQwj3seJj9BKGW2OZiz53QQFMUA6hj4Q58XAHj6uNylDocIxQWyoEARUMzMop334PuURs0XwIigo60cDxKKA0pC6LahiabMKXfhobanxfXFM67nl2nc2ed12Yhx_06NbvEBxvEhYwjl-QGiaa-46gdWILiLeg6nlqb2kMmgI6s0e9yw4m-X_YPWZv0LGdfT4_e7uGLBU42rZOuxBBM_HLztLf9N5aW7EI-88blayDEcYpkfNbiwgUiUrntQbPVUoyOmiVQ-AhmFN5TE3T9RXThw4yEai97sCRcw3mzZ7CMPIM6Kv1oLzapwVX-ZFJFSQLlSb1FR8eERcjk-0uer4mX4LF3SuAyWkNM-oOcQXo7FlcR5Xr4FWrli0sILt8aHLkpDd1W2rvIYrhtML0uTRSdIJfsxucwuV6iSzFdt_VABPs-yROpTZlkkGRM7QSFSIdZkcqD60pExqcva8LHxE-h8kLBTNZAAlJ9rH4OhlKMrOLgx9OaAOM9rXu-nfussmtRDbMj6Xmfbj9tmtwMxCPxrFHpzCRf9jxGFScp5_hiadMEUMQypS_NZ2jQJ34DsuUaMgYGQUryIcBTO1ilzmzsYspmFddumvbDu92MFpJF-jHUYMuLObKsf5GlsiB5vM_F0sDPnR4iE_m00]--></g></svg>